<svg version="1.1" xmlns="http://www.w3.org/2000/svg" xmlns:xlink="http://www.w3.org/1999/xlink" x="0px" y="0px" viewBox="0 0 500 500" style="enable-background:new 0 0 500 500;" xml:space="preserve">
<g id="Background_Complete">
	<g>
		<g>
			<g>
				<g>
					<g>
						<g>
							<g>
								<path style="fill:#EBEBEB;" d="M319.228,243.087c-47.978-0.444-91.395-0.845-122.866-1.136          c-15.7-0.073-28.409-0.132-37.235-0.173c-4.372,0.01-7.775,0.017-10.124,0.023c-1.134,0.015-2.007,0.026-2.633,0.034          c-0.593,0.014-0.897,0.03-0.897,0.047c0,0.018,0.304,0.036,0.897,0.056c0.626,0.014,1.499,0.034,2.633,0.061          c2.349,0.028,5.751,0.07,10.123,0.123c8.825,0.046,21.535,0.112,37.234,0.194c31.472,0.019,74.892,0.046,122.871,0.076          c47.956-0.005,91.383,0.056,122.82,0.279c15.719,0.109,28.44,0.252,37.232,0.415c4.396,0.081,7.809,0.167,10.123,0.253          c2.314,0.086,3.529,0.174,3.529,0.257c-0.001,0.083-1.217,0.158-3.532,0.222c-2.315,0.064-5.729,0.116-10.125,0.154          c-8.793,0.076-21.515,0.094-37.234,0.048C410.607,243.932,367.181,243.565,319.228,243.087z"/>
							</g>
						</g>
					</g>
				</g>
			</g>
		</g>
		<g>
			<g>
				<g>
					<g>
						<g>
							<g>
								<path style="fill:#EBEBEB;" d="M318.272,253.495c-47.322-7.61-90.146-14.496-121.187-19.487          c-15.497-2.416-28.043-4.372-36.755-5.731c-4.321-0.642-7.683-1.142-10.005-1.487c-1.123-0.154-1.987-0.272-2.607-0.357          c-0.589-0.074-0.891-0.104-0.894-0.085c-0.003,0.018,0.294,0.083,0.876,0.191c0.616,0.108,1.475,0.259,2.59,0.455          c2.316,0.38,5.67,0.93,9.98,1.637c8.711,1.365,21.255,3.329,36.75,5.757c31.088,4.718,73.976,11.227,121.369,18.42          c47.375,7.154,90.265,13.697,121.284,18.614c15.51,2.455,28.054,4.499,36.712,5.975c4.329,0.738,7.687,1.333,9.959,1.766          s3.458,0.701,3.444,0.785c-0.014,0.083-1.228-0.023-3.525-0.304c-2.298-0.282-5.679-0.739-10.028-1.358          c-8.698-1.236-21.27-3.118-36.79-5.512C408.403,267.991,365.565,261.137,318.272,253.495z"/>
							</g>
						</g>
					</g>
				</g>
			</g>
		</g>
		<g>
			<g>
				<g>
					<g>
						<g>
							<g>
								<path style="fill:#EBEBEB;" d="M315.632,263.631c-45.484-14.681-86.645-27.967-116.481-37.597          c-14.908-4.732-26.977-8.563-35.357-11.223c-4.162-1.288-7.401-2.29-9.637-2.982c-1.083-0.322-1.917-0.569-2.516-0.747          c-0.569-0.162-0.864-0.237-0.869-0.219c-0.006,0.018,0.276,0.127,0.834,0.322c0.591,0.2,1.414,0.479,2.483,0.842          c2.225,0.726,5.446,1.777,9.587,3.128c8.379,2.667,20.444,6.506,35.348,11.25c29.927,9.365,71.214,22.284,116.838,36.56          c45.612,14.234,86.896,27.188,116.723,36.74c14.914,4.773,26.967,8.691,35.274,11.461c4.154,1.384,7.372,2.482,9.544,3.253          c2.173,0.772,3.299,1.217,3.272,1.299c-0.028,0.081-1.209-0.207-3.432-0.832c-2.223-0.625-5.487-1.589-9.681-2.857          c-8.388-2.537-20.494-6.297-35.429-11.011C402.261,291.596,361.081,278.34,315.632,263.631z"/>
							</g>
						</g>
					</g>
				</g>
			</g>
		</g>
		<g>
			<g>
				<g>
					<g>
						<g>
							<g>
								<path style="fill:#EBEBEB;" d="M311.367,273.23c-42.517-21.376-80.993-40.72-108.881-54.741          c-13.948-6.929-25.24-12.538-33.08-16.433c-3.899-1.902-6.934-3.382-9.028-4.404c-1.018-0.482-1.801-0.853-2.362-1.119          c-0.535-0.247-0.813-0.365-0.822-0.349c-0.009,0.016,0.253,0.166,0.771,0.444c0.55,0.286,1.318,0.687,2.315,1.206          c2.078,1.053,5.088,2.578,8.956,4.538c7.837,3.9,19.124,9.517,33.067,16.456c28.02,13.777,66.677,32.784,109.394,53.787          c42.713,20.961,81.361,40.001,109.253,53.945c13.948,6.97,25.209,12.661,32.961,16.651c3.876,1.995,6.875,3.564,8.895,4.654          c2.02,1.089,3.06,1.699,3.02,1.774c-0.04,0.075-1.159-0.389-3.251-1.345c-2.092-0.955-5.158-2.401-9.091-4.289          c-7.867-3.776-19.206-9.322-33.183-16.237C392.344,313.944,353.845,294.626,311.367,273.23z"/>
							</g>
						</g>
					</g>
				</g>
			</g>
		</g>
		<g>
			<g>
				<g>
					<g>
						<g>
							<g>
								<path style="fill:#EBEBEB;" d="M305.588,282.07c-38.518-27.502-73.376-52.39-98.642-70.43          c-12.65-8.94-22.89-16.177-30.001-21.202c-3.542-2.465-6.298-4.382-8.201-5.707c-0.926-0.629-1.639-1.113-2.151-1.46          c-0.488-0.324-0.744-0.483-0.755-0.468c-0.011,0.014,0.223,0.202,0.69,0.554c0.497,0.366,1.19,0.876,2.091,1.539          c1.881,1.352,4.606,3.311,8.108,5.828c7.107,5.03,17.342,12.274,29.985,21.222c25.436,17.818,60.527,42.4,99.305,69.564          c38.78,27.121,73.856,51.735,99.138,69.7c12.643,8.98,22.84,16.293,29.848,21.4c3.504,2.553,6.211,4.554,8.028,5.934          c1.818,1.38,2.747,2.138,2.695,2.206c-0.052,0.068-1.082-0.559-2.993-1.816c-1.911-1.257-4.704-3.146-8.282-5.602          c-7.157-4.911-17.455-12.093-30.136-21.023C378.949,334.453,344.065,309.587,305.588,282.07z"/>
							</g>
						</g>
					</g>
				</g>
			</g>
		</g>
		<g>
			<g>
				<g>
					<g>
						<g>
							<g>
								<path style="fill:#EBEBEB;" d="M298.448,289.935c-33.601-32.927-64.007-62.723-86.048-84.321          c-11.049-10.722-19.994-19.402-26.205-25.43c-3.1-2.964-5.512-5.271-7.178-6.864c-0.813-0.76-1.44-1.345-1.888-1.765          c-0.43-0.393-0.657-0.588-0.67-0.576c-0.014,0.013,0.187,0.233,0.592,0.65c0.432,0.436,1.034,1.044,1.816,1.833          c1.64,1.617,4.015,3.959,7.067,6.969c6.207,6.032,15.145,14.718,26.187,25.447c22.243,21.405,52.93,50.935,86.841,83.567          c33.919,32.59,64.587,62.15,86.654,83.676c11.036,10.761,19.926,19.51,26.023,25.602c3.048,3.046,5.399,5.427,6.971,7.061          c1.573,1.635,2.367,2.523,2.305,2.582c-0.062,0.059-0.978-0.714-2.662-2.242c-1.684-1.528-4.137-3.811-7.275-6.773          c-6.275-5.922-15.286-14.556-26.368-25.273C362.443,352.648,332.005,322.87,298.448,289.935z"/>
							</g>
						</g>
					</g>
				</g>
			</g>
		</g>
		<g>
			<g>
				<g>
					<g>
						<g>
							<g>
								<path style="fill:#EBEBEB;" d="M290.124,296.636c-27.864-37.55-53.08-71.531-71.357-96.163          c-9.18-12.244-16.612-22.156-21.772-29.039c-2.583-3.392-4.593-6.031-5.98-7.853c-0.681-0.872-1.204-1.544-1.58-2.025          c-0.361-0.453-0.553-0.679-0.569-0.669s0.147,0.258,0.48,0.731c0.356,0.495,0.852,1.185,1.497,2.082          c1.358,1.843,3.325,4.511,5.853,7.941c5.156,6.886,12.58,16.803,21.751,29.054c18.51,24.47,44.045,58.229,72.264,95.534          c28.234,37.265,53.746,71.05,72.063,95.615c9.16,12.28,16.527,22.252,21.563,29.182c2.518,3.465,4.455,6.168,5.743,8.018          c1.289,1.85,1.93,2.846,1.859,2.895c-0.071,0.049-0.85-0.851-2.267-2.612c-1.417-1.761-3.471-4.384-6.091-7.778          c-5.241-6.788-12.745-16.664-21.958-28.908C343.192,368.155,317.944,334.188,290.124,296.636z"/>
							</g>
						</g>
					</g>
				</g>
			</g>
		</g>
		<g>
			<g>
				<g>
					<g>
						<g>
							<g>
								<path style="fill:#EBEBEB;" d="M280.816,302.007c-21.413-41.277-40.791-78.631-54.837-105.707          c-7.076-13.473-12.805-24.38-16.783-31.954c-1.999-3.738-3.556-6.647-4.63-8.655c-0.53-0.964-0.939-1.706-1.231-2.238          c-0.283-0.501-0.437-0.754-0.454-0.746c-0.017,0.008,0.103,0.277,0.354,0.794c0.271,0.542,0.649,1.299,1.14,2.282          c1.042,2.024,2.55,4.956,4.489,8.724c3.972,7.577,9.692,18.488,16.758,31.966c14.303,26.951,34.036,64.133,55.841,105.22          c21.828,41.05,41.533,78.254,55.629,105.269c7.051,13.506,12.704,24.463,16.551,32.064c1.924,3.801,3.396,6.762,4.368,8.783          c0.972,2.021,1.443,3.102,1.364,3.14c-0.079,0.038-0.703-0.968-1.816-2.921c-1.113-1.952-2.716-4.851-4.752-8.597          c-4.073-7.492-9.879-18.375-16.987-31.853C321.597,380.625,302.184,343.279,280.816,302.007z"/>
							</g>
						</g>
					</g>
				</g>
			</g>
		</g>
		<g>
			<g>
				<g>
					<g>
						<g>
							<g>
								<path style="fill:#EBEBEB;" d="M270.744,305.908c-14.39-44.002-27.413-83.822-36.852-112.685          c-4.783-14.376-8.656-26.013-11.344-34.094c-1.363-3.994-2.424-7.102-3.157-9.247c-0.367-1.032-0.648-1.826-0.851-2.396          c-0.197-0.538-0.308-0.811-0.327-0.805c-0.018,0.006,0.056,0.289,0.22,0.838c0.178,0.577,0.428,1.381,0.752,2.426          c0.697,2.156,1.707,5.28,3.005,9.294c2.683,8.083,6.545,19.724,11.317,34.103c9.715,28.779,23.117,68.482,37.928,112.355          c14.839,43.84,28.211,83.56,37.71,112.371c4.753,14.405,8.542,26.08,11.097,34.169c1.278,4.044,2.247,7.192,2.875,9.335          c0.629,2.143,0.917,3.281,0.832,3.307c-0.084,0.026-0.536-1.062-1.316-3.159c-0.78-2.096-1.888-5.201-3.286-9.209          c-2.796-8.015-6.749-19.64-11.563-34.025C298.149,389.715,285.091,349.898,270.744,305.908z"/>
							</g>
						</g>
					</g>
				</g>
			</g>
		</g>
		<g>
			<g>
				<g>
					<g>
						<g>
							<g>
								<path style="fill:#EBEBEB;" d="M260.157,308.236c-7.01-45.631-13.354-86.924-17.953-116.856          c-2.37-14.92-4.29-26.998-5.622-35.386c-0.692-4.15-1.231-7.38-1.603-9.61c-0.193-1.074-0.341-1.902-0.447-2.495          c-0.107-0.561-0.171-0.847-0.19-0.844c-0.018,0.003,0.009,0.294,0.08,0.861c0.082,0.596,0.197,1.429,0.346,2.509          c0.336,2.235,0.822,5.472,1.447,9.633c1.326,8.388,3.236,20.468,5.595,35.39c4.883,29.89,11.62,71.126,19.063,116.693          c7.477,45.539,14.181,86.787,18.846,116.676c2.336,14.944,4.167,27.047,5.367,35.422c0.6,4.187,1.042,7.442,1.313,9.653          c0.27,2.211,0.368,3.379,0.281,3.392c-0.087,0.013-0.354-1.13-0.782-3.318c-0.427-2.188-1.013-5.422-1.737-9.591          c-1.449-8.338-3.45-20.416-5.85-35.351C273.506,395.145,267.126,353.849,260.157,308.236z"/>
							</g>
						</g>
					</g>
				</g>
			</g>
		</g>
		<g>
			<g>
				<g>
					<g>
						<g>
							<g>
								<path style="fill:#EBEBEB;" d="M249.319,308.944c0.432-46.124,0.823-87.864,1.106-118.119          c0.066-15.093,0.12-27.311,0.157-35.796c-0.013-4.203-0.023-7.474-0.03-9.732c-0.016-1.09-0.029-1.93-0.038-2.531          c-0.014-0.57-0.031-0.863-0.049-0.863c-0.018,0-0.038,0.292-0.058,0.862c-0.015,0.602-0.035,1.441-0.061,2.531          c-0.028,2.258-0.069,5.529-0.121,9.732c-0.042,8.485-0.103,20.703-0.179,35.796c-0.001,30.256-0.002,71.997-0.003,118.123          c0.035,46.103-0.002,87.852-0.215,118.075c-0.103,15.111-0.245,27.341-0.409,35.793c-0.082,4.226-0.169,7.507-0.257,9.732          c-0.089,2.225-0.178,3.393-0.265,3.393c-0.086,0-0.165-1.169-0.233-3.395c-0.067-2.226-0.124-5.507-0.166-9.734          c-0.085-8.453-0.112-20.684-0.073-35.796C248.496,396.791,248.852,355.044,249.319,308.944z"/>
							</g>
						</g>
					</g>
				</g>
			</g>
		</g>
		<g>
			<g>
				<g>
					<g>
						<g>
							<g>
								<path style="fill:#EBEBEB;" d="M238.492,308.031c7.885-45.499,15.022-86.672,20.194-116.517          c2.503-14.9,4.531-26.962,5.938-35.338c0.665-4.154,1.183-7.387,1.54-9.619c0.159-1.079,0.282-1.911,0.37-2.506          c0.077-0.566,0.107-0.857,0.089-0.86c-0.019-0.003-0.086,0.283-0.199,0.843c-0.112,0.592-0.268,1.418-0.471,2.491          c-0.393,2.227-0.963,5.451-1.696,9.595c-1.414,8.375-3.45,20.436-5.965,35.334c-4.888,29.889-11.632,71.124-19.084,116.69          c-7.411,45.549-14.191,86.786-19.286,116.61c-2.544,14.912-4.662,26.973-6.192,35.297c-0.765,4.162-1.382,7.391-1.83,9.575          c-0.448,2.184-0.727,3.325-0.814,3.311c-0.087-0.014,0.023-1.18,0.314-3.389c0.292-2.209,0.766-5.46,1.406-9.641          c1.281-8.363,3.23-20.449,5.711-35.372C223.471,394.688,230.574,353.501,238.492,308.031z"/>
							</g>
						</g>
					</g>
				</g>
			</g>
		</g>
		<g>
			<g>
				<g>
					<g>
						<g>
							<g>
								<path style="fill:#EBEBEB;" d="M227.948,305.499c15.243-43.736,29.036-83.315,39.034-112.004          c4.913-14.335,8.89-25.939,11.652-33.998c1.337-4.002,2.377-7.116,3.095-9.266c0.334-1.042,0.591-1.844,0.776-2.419          c0.169-0.547,0.245-0.83,0.227-0.836c-0.018-0.006-0.132,0.266-0.335,0.802c-0.208,0.568-0.498,1.36-0.874,2.388          c-0.754,2.139-1.845,5.237-3.248,9.218c-2.769,8.057-6.755,19.659-11.68,33.99c-9.722,28.777-23.135,68.476-37.956,112.346          c-14.778,43.859-28.225,83.556-38.143,112.236c-4.956,14.341-9.023,25.93-11.899,33.918          c-1.437,3.994-2.577,7.089-3.378,9.178c-0.801,2.089-1.264,3.173-1.349,3.146c-0.084-0.027,0.214-1.163,0.863-3.3          c0.649-2.137,1.649-5.276,2.966-9.309c2.633-8.065,6.538-19.706,11.431-34.067          C198.914,388.798,212.677,349.201,227.948,305.499z"/>
							</g>
						</g>
					</g>
				</g>
			</g>
		</g>
		<g>
			<g>
				<g>
					<g>
						<g>
							<g>
								<path style="fill:#EBEBEB;" d="M217.96,301.405c22.208-40.887,42.305-77.889,56.872-104.708          c7.198-13.413,13.026-24.272,17.072-31.812c1.976-3.75,3.514-6.668,4.575-8.682c0.501-0.979,0.887-1.732,1.163-2.271          c0.256-0.514,0.379-0.782,0.362-0.791c-0.017-0.008-0.173,0.243-0.461,0.742c-0.298,0.529-0.713,1.267-1.253,2.227          c-1.094,1.998-2.678,4.893-4.715,8.613c-4.052,7.537-9.888,18.392-17.097,31.8c-14.313,26.946-34.06,64.121-55.88,105.201          c-21.777,41.075-41.557,78.242-56.045,105.065c-7.241,13.413-13.154,24.243-17.299,31.697          c-2.073,3.728-3.703,6.612-4.835,8.554c-1.132,1.942-1.765,2.943-1.843,2.905c-0.078-0.039,0.404-1.115,1.396-3.126          c0.992-2.012,2.494-4.96,4.456-8.742c3.923-7.565,9.685-18.47,16.868-31.911C175.66,379.278,195.73,342.255,217.96,301.405z          "/>
							</g>
						</g>
					</g>
				</g>
			</g>
		</g>
		<g>
			<g>
				<g>
					<g>
						<g>
							<g>
								<path style="fill:#EBEBEB;" d="M208.761,295.855c28.583-37.047,54.45-70.573,73.199-94.874          c9.291-12.166,16.812-22.016,22.035-28.855c2.562-3.406,4.555-6.057,5.931-7.887c0.654-0.891,1.157-1.577,1.518-2.068          c0.337-0.47,0.502-0.716,0.487-0.726c-0.015-0.011-0.21,0.214-0.576,0.663c-0.38,0.478-0.911,1.145-1.6,2.011          c-1.406,1.81-3.441,4.43-6.057,7.799c-5.228,6.836-12.757,16.68-22.057,28.84c-18.518,24.464-44.066,58.215-72.298,95.51          c-28.188,37.298-53.768,71.035-72.439,95.351c-9.333,12.16-16.934,21.968-22.241,28.708          c-2.653,3.37-4.733,5.974-6.167,7.722c-1.434,1.748-2.223,2.642-2.293,2.592c-0.071-0.05,0.58-1.04,1.887-2.879          c1.307-1.838,3.27-4.524,5.822-7.966c5.105-6.883,12.569-16.788,21.849-28.985          C154.319,366.414,180.162,332.862,208.761,295.855z"/>
							</g>
						</g>
					</g>
				</g>
			</g>
		</g>
		<g>
			<g>
				<g>
					<g>
						<g>
							<g>
								<path style="fill:#EBEBEB;" d="M200.576,288.996c34.229-32.323,65.205-61.573,87.657-82.775          c11.147-10.629,20.17-19.233,26.436-25.208c3.082-2.982,5.48-5.302,7.135-6.904c0.79-0.782,1.398-1.385,1.834-1.816          c0.409-0.414,0.612-0.632,0.598-0.645c-0.013-0.013-0.242,0.18-0.676,0.57c-0.453,0.415-1.085,0.995-1.905,1.747          c-1.681,1.578-4.116,3.862-7.244,6.798c-6.27,5.971-15.3,14.57-26.454,25.191c-22.252,21.397-52.949,50.917-86.872,83.537          c-33.879,32.629-64.608,62.13-86.986,83.358c-11.187,10.616-20.282,19.168-26.615,25.033          c-3.166,2.933-5.641,5.194-7.341,6.706c-1.699,1.513-2.622,2.277-2.684,2.218c-0.062-0.06,0.742-0.941,2.33-2.561          c1.588-1.62,3.962-3.98,7.04-6.998c6.156-6.036,15.132-14.704,26.273-25.365          C135.382,350.557,166.338,321.277,200.576,288.996z"/>
							</g>
						</g>
					</g>
				</g>
			</g>
		</g>
		<g>
			<g>
				<g>
					<g>
						<g>
							<g>
								<path style="fill:#EBEBEB;" d="M193.6,280.998c39.042-26.811,74.374-51.073,99.983-68.659          c12.73-8.833,23.036-15.984,30.193-20.949c3.526-2.485,6.27-4.419,8.165-5.754c0.907-0.655,1.605-1.159,2.106-1.52          c0.471-0.347,0.706-0.533,0.695-0.547c-0.011-0.015-0.268,0.142-0.76,0.461c-0.515,0.342-1.233,0.82-2.165,1.441          c-1.916,1.307-4.691,3.2-8.257,5.632c-7.16,4.961-17.471,12.104-30.208,20.929c-25.442,17.81-60.542,42.38-99.329,69.532          c-38.746,27.166-73.873,51.714-99.413,69.338c-12.769,8.814-23.137,15.902-30.341,20.749          c-3.602,2.423-6.413,4.286-8.337,5.527c-1.924,1.24-2.959,1.857-3.011,1.789c-0.051-0.068,0.885-0.818,2.716-2.181          c1.831-1.363,4.558-3.34,8.087-5.861c7.058-5.042,17.326-12.263,30.057-21.128          C119.239,332.06,154.556,307.766,193.6,280.998z"/>
							</g>
						</g>
					</g>
				</g>
			</g>
		</g>
		<g>
			<g>
				<g>
					<g>
						<g>
							<g>
								<path style="fill:#EBEBEB;" d="M188.008,272.052c42.923-20.612,81.766-39.264,109.921-52.784          c14.01-6.811,25.352-12.325,33.228-16.154c3.887-1.925,6.912-3.423,9-4.457c1.002-0.511,1.774-0.904,2.327-1.185          c0.522-0.273,0.784-0.42,0.775-0.437c-0.008-0.016-0.288,0.099-0.826,0.341c-0.564,0.261-1.351,0.625-2.373,1.097          c-2.105,1.003-5.153,2.455-9.071,4.321c-7.879,3.823-19.225,9.329-33.24,16.13c-28.025,13.767-66.69,32.761-109.415,53.749          c-42.686,21.01-81.373,39.977-109.465,53.545c-14.045,6.787-25.438,12.229-33.343,15.932          c-3.952,1.852-7.032,3.269-9.134,4.205c-2.102,0.935-3.225,1.389-3.265,1.313c-0.04-0.076,1.007-0.676,3.037-1.747          c2.03-1.072,5.044-2.614,8.94-4.574c7.79-3.92,19.107-9.508,33.122-16.351C106.255,311.306,145.089,292.621,188.008,272.052          z"/>
							</g>
						</g>
					</g>
				</g>
			</g>
		</g>
		<g>
			<g>
				<g>
					<g>
						<g>
							<g>
								<path style="fill:#EBEBEB;" d="M183.944,262.372c45.762-13.862,87.174-26.406,117.191-35.499          c14.95-4.608,27.053-8.337,35.458-10.928c4.153-1.313,7.385-2.335,9.617-3.04c1.073-0.353,1.899-0.624,2.492-0.819          c0.559-0.191,0.843-0.297,0.837-0.314c-0.006-0.018-0.301,0.054-0.871,0.212c-0.6,0.172-1.436,0.412-2.523,0.724          c-2.243,0.672-5.491,1.644-9.665,2.895c-8.407,2.584-20.513,6.305-35.467,10.901c-29.929,9.358-71.22,22.267-116.847,36.533          C138.572,277.329,97.263,290.209,67.3,299.36c-14.98,4.578-27.123,8.229-35.535,10.69c-4.206,1.231-7.479,2.165-9.708,2.77          c-2.229,0.606-3.413,0.883-3.439,0.802c-0.027-0.081,1.104-0.516,3.285-1.267c2.18-0.751,5.409-1.819,9.576-3.165          c8.335-2.693,20.425-6.5,35.386-11.138C96.784,288.771,138.193,276.193,183.944,262.372z"/>
							</g>
						</g>
					</g>
				</g>
			</g>
		</g>
		<g>
			<g>
				<g>
					<g>
						<g>
							<g>
								<path style="fill:#EBEBEB;" d="M181.515,252.196c47.461-6.768,90.41-12.893,121.542-17.332          c15.518-2.288,28.081-4.141,36.804-5.427c4.317-0.668,7.676-1.188,9.995-1.547c1.117-0.186,1.978-0.329,2.595-0.432          c0.584-0.103,0.881-0.165,0.878-0.183c-0.003-0.018-0.306,0.009-0.895,0.078c-0.62,0.079-1.486,0.19-2.61,0.334          c-2.325,0.324-5.692,0.794-10.019,1.397c-8.725,1.28-21.289,3.124-36.809,5.401c-31.088,4.713-73.977,11.215-121.371,18.4          c-47.365,7.217-90.267,13.687-121.354,18.191c-15.543,2.255-28.132,4.024-36.842,5.182          c-4.355,0.579-7.741,1.007-10.041,1.268c-2.3,0.261-3.515,0.356-3.528,0.273c-0.013-0.083,1.176-0.342,3.452-0.753          c2.276-0.412,5.639-0.977,9.975-1.676c8.672-1.398,21.235-3.329,36.768-5.646          C91.121,265.084,134.073,258.925,181.515,252.196z"/>
							</g>
						</g>
					</g>
				</g>
			</g>
		</g>
		<g>
			<g>
				<g>
					<g>
						<g>
							<g>
								<path style="fill:#EBEBEB;" d="M180.772,241.778c47.978,0.387,91.396,0.736,122.867,0.99          c15.7,0.054,28.409,0.098,37.235,0.129c4.372-0.015,7.774-0.027,10.123-0.035c1.134-0.016,2.007-0.029,2.633-0.038          c0.593-0.014,0.897-0.031,0.897-0.048c0-0.017-0.304-0.036-0.897-0.055c-0.626-0.014-1.499-0.033-2.633-0.057          c-2.349-0.026-5.751-0.063-10.123-0.111c-8.826-0.035-21.535-0.087-37.235-0.15c-31.472,0.018-74.891,0.043-122.871,0.071          c-47.956,0.062-91.383,0.053-122.821-0.133c-15.719-0.09-28.44-0.219-37.232-0.371c-4.396-0.076-7.809-0.158-10.123-0.241          c-2.315-0.084-3.53-0.169-3.529-0.253c0-0.083,1.216-0.16,3.531-0.226c2.315-0.066,5.729-0.122,10.125-0.166          c8.793-0.087,21.515-0.12,37.234-0.093C89.393,241.042,132.818,241.357,180.772,241.778z"/>
							</g>
						</g>
					</g>
				</g>
			</g>
		</g>
		<g>
			<g>
				<g>
					<g>
						<g>
							<g>
								<path style="fill:#EBEBEB;" d="M181.714,231.369c47.332,7.552,90.165,14.386,121.213,19.339          c15.5,2.398,28.049,4.338,36.762,5.686c4.322,0.637,7.685,1.132,10.007,1.475c1.123,0.152,1.988,0.27,2.607,0.354          c0.588,0.074,0.891,0.103,0.894,0.085c0.003-0.018-0.294-0.082-0.877-0.19c-0.616-0.108-1.475-0.257-2.591-0.452          c-2.316-0.377-5.671-0.923-9.982-1.624c-8.713-1.354-21.259-3.304-36.758-5.712c-31.094-4.68-73.99-11.137-121.392-18.272          c-47.384-7.096-90.283-13.587-121.309-18.466c-15.514-2.437-28.06-4.465-36.72-5.93c-4.33-0.733-7.689-1.324-9.961-1.754          c-2.273-0.429-3.459-0.697-3.445-0.781c0.014-0.083,1.228,0.021,3.525,0.3c2.298,0.279,5.68,0.732,10.03,1.346          c8.7,1.226,21.274,3.092,36.798,5.467C91.565,216.983,134.412,223.785,181.714,231.369z"/>
							</g>
						</g>
					</g>
				</g>
			</g>
		</g>
		<g>
			<g>
				<g>
					<g>
						<g>
							<g>
								<path style="fill:#EBEBEB;" d="M184.342,221.23c45.504,14.626,86.682,27.861,116.531,37.454          c14.914,4.714,26.988,8.53,35.372,11.18c4.163,1.283,7.403,2.281,9.641,2.97c1.084,0.32,1.919,0.567,2.517,0.744          c0.569,0.161,0.864,0.236,0.87,0.218c0.006-0.018-0.277-0.126-0.834-0.321c-0.591-0.199-1.415-0.478-2.484-0.839          c-2.226-0.723-5.449-1.771-9.591-3.117c-8.382-2.656-20.453-6.481-35.363-11.206c-29.94-9.328-71.244-22.197-116.886-36.417          c-45.632-14.178-86.933-27.081-116.772-36.597c-14.921-4.755-26.978-8.658-35.289-11.418          c-4.156-1.379-7.375-2.473-9.549-3.242c-2.174-0.769-3.302-1.214-3.274-1.295c0.028-0.081,1.21,0.205,3.433,0.828          c2.223,0.622,5.489,1.582,9.685,2.845c8.391,2.527,20.502,6.272,35.443,10.968          C97.676,193.371,138.873,206.577,184.342,221.23z"/>
							</g>
						</g>
					</g>
				</g>
			</g>
		</g>
		<g>
			<g>
				<g>
					<g>
						<g>
							<g>
								<path style="fill:#EBEBEB;" d="M188.593,211.626c42.545,21.324,81.046,40.621,108.953,54.608          c13.957,6.912,25.256,12.507,33.101,16.392c3.902,1.897,6.938,3.374,9.034,4.393c1.019,0.481,1.802,0.851,2.363,1.116          c0.535,0.246,0.814,0.364,0.823,0.348c0.009-0.016-0.253-0.166-0.772-0.443c-0.55-0.286-1.319-0.685-2.317-1.203          c-2.079-1.05-5.091-2.572-8.962-4.527c-7.843-3.891-19.137-9.494-33.089-16.416c-28.038-13.743-66.72-32.703-109.465-53.654          c-42.74-20.909-81.413-39.902-109.324-53.812c-13.957-6.952-25.225-12.63-32.983-16.61c-3.879-1.99-6.88-3.556-8.901-4.643          c-2.021-1.087-3.063-1.695-3.023-1.77c0.04-0.075,1.159,0.388,3.253,1.341c2.093,0.952,5.16,2.395,9.097,4.278          c7.872,3.766,19.218,9.299,33.205,16.196C107.563,171.01,146.087,190.281,188.593,211.626z"/>
							</g>
						</g>
					</g>
				</g>
			</g>
		</g>
		<g>
			<g>
				<g>
					<g>
						<g>
							<g>
								<path style="fill:#EBEBEB;" d="M194.361,202.778c38.554,27.456,73.444,52.301,98.734,70.311          c12.661,8.924,22.911,16.149,30.029,21.166c3.545,2.46,6.304,4.375,8.208,5.697c0.927,0.628,1.641,1.111,2.153,1.458          c0.489,0.324,0.744,0.482,0.756,0.467c0.011-0.014-0.223-0.202-0.691-0.553c-0.497-0.365-1.192-0.875-2.093-1.537          c-1.883-1.35-4.61-3.305-8.116-5.818c-7.114-5.022-17.359-12.253-30.013-21.186c-25.459-17.787-60.583-42.327-99.395-69.444          c-38.815-27.075-73.924-51.646-99.229-69.58c-12.654-8.965-22.861-16.266-29.876-21.363          c-3.507-2.549-6.217-4.546-8.036-5.924c-1.819-1.378-2.749-2.135-2.697-2.203c0.052-0.068,1.083,0.557,2.995,1.812          c1.913,1.255,4.708,3.141,8.289,5.592c7.163,4.903,17.471,12.072,30.163,20.987          C120.931,150.485,155.848,175.308,194.361,202.778z"/>
							</g>
						</g>
					</g>
				</g>
			</g>
		</g>
		<g>
			<g>
				<g>
					<g>
						<g>
							<g>
								<path style="fill:#EBEBEB;" d="M201.491,194.905c33.643,32.886,64.089,62.646,86.157,84.218          c11.063,10.709,20.019,19.378,26.239,25.399c3.104,2.961,5.519,5.264,7.186,6.855c0.814,0.759,1.441,1.343,1.89,1.762          c0.431,0.393,0.658,0.587,0.671,0.575c0.013-0.013-0.188-0.232-0.593-0.649c-0.432-0.435-1.035-1.042-1.819-1.831          c-1.642-1.615-4.02-3.954-7.076-6.96c-6.215-6.024-15.165-14.699-26.221-25.416c-22.271-21.378-52.997-50.871-86.949-83.462          c-33.962-32.549-64.668-62.072-86.764-83.572c-11.05-10.748-19.951-19.486-26.056-25.571          c-3.052-3.042-5.406-5.42-6.98-7.053c-1.574-1.633-2.37-2.52-2.308-2.579c0.062-0.059,0.979,0.713,2.665,2.239          c1.686,1.526,4.142,3.806,7.283,6.764c6.283,5.914,15.305,14.538,26.401,25.242          C137.414,132.269,167.891,162.011,201.491,194.905z"/>
							</g>
						</g>
					</g>
				</g>
			</g>
		</g>
		<g>
			<g>
				<g>
					<g>
						<g>
							<g>
								<path style="fill:#EBEBEB;" d="M209.806,188.194c27.913,37.517,53.173,71.467,71.483,96.076          c9.196,12.233,16.641,22.136,21.81,29.012c2.587,3.389,4.6,6.026,5.99,7.846c0.682,0.872,1.207,1.542,1.583,2.023          c0.361,0.452,0.554,0.679,0.57,0.668c0.015-0.011-0.148-0.258-0.48-0.73c-0.357-0.494-0.854-1.185-1.5-2.08          c-1.361-1.841-3.331-4.507-5.863-7.934c-5.165-6.88-12.602-16.788-21.789-29.027          c-18.542-24.448-44.122-58.176-72.389-95.447c-28.283-37.231-53.839-70.985-72.187-95.527          c-9.177-12.269-16.556-22.232-21.602-29.155c-2.523-3.462-4.463-6.163-5.754-8.011c-1.291-1.848-1.933-2.844-1.863-2.893          c0.071-0.049,0.852,0.85,2.271,2.61c1.419,1.76,3.476,4.379,6.101,7.77c5.249,6.782,12.767,16.649,21.996,28.882          C156.644,116.739,181.937,150.676,209.806,188.194z"/>
							</g>
						</g>
					</g>
				</g>
			</g>
		</g>
		<g>
			<g>
				<g>
					<g>
						<g>
							<g>
								<path style="fill:#EBEBEB;" d="M219.107,182.812c21.467,41.251,40.895,78.581,54.976,105.64          c7.094,13.465,12.837,24.365,16.824,31.934c2.005,3.736,3.564,6.642,4.641,8.65c0.532,0.963,0.941,1.705,1.235,2.236          c0.284,0.501,0.438,0.754,0.455,0.745c0.017-0.008-0.104-0.277-0.355-0.794c-0.272-0.542-0.651-1.298-1.143-2.281          c-1.044-2.023-2.557-4.953-4.5-8.718c-3.982-7.572-9.717-18.476-16.8-31.946c-14.339-26.934-34.12-64.092-55.979-105.152          c-21.882-41.024-41.635-78.203-55.767-105.201c-7.068-13.498-12.736-24.448-16.594-32.044          c-1.929-3.798-3.405-6.758-4.379-8.778c-0.974-2.02-1.447-3.1-1.368-3.138c0.078-0.038,0.704,0.967,1.82,2.918          c1.116,1.951,2.722,4.848,4.763,8.591c4.083,7.487,9.903,18.363,17.029,31.832          C178.223,104.243,197.684,141.565,219.107,182.812z"/>
							</g>
						</g>
					</g>
				</g>
			</g>
		</g>
		<g>
			<g>
				<g>
					<g>
						<g>
							<g>
								<path style="fill:#EBEBEB;" d="M229.173,178.899c14.449,43.985,27.524,83.788,37.002,112.64          c4.802,14.37,8.689,26.003,11.389,34.081c1.369,3.992,2.434,7.098,3.169,9.243c0.368,1.031,0.651,1.826,0.854,2.395          c0.198,0.538,0.309,0.81,0.328,0.805c0.018-0.006-0.057-0.289-0.221-0.838c-0.18-0.577-0.43-1.381-0.755-2.425          c-0.7-2.156-1.714-5.278-3.017-9.29c-2.693-8.08-6.571-19.716-11.362-34.089c-9.753-28.767-23.208-68.453-38.076-112.308          c-14.897-43.822-28.321-83.526-37.858-112.325c-4.772-14.399-8.577-26.069-11.143-34.155          c-1.283-4.043-2.256-7.189-2.888-9.331c-0.631-2.142-0.921-3.28-0.837-3.306c0.084-0.026,0.537,1.061,1.32,3.157          c0.783,2.096,1.895,5.199,3.299,9.205c2.807,8.011,6.775,19.632,11.608,34.011          C201.658,95.125,214.768,134.925,229.173,178.899z"/>
							</g>
						</g>
					</g>
				</g>
			</g>
		</g>
		<g>
			<g>
				<g>
					<g>
						<g>
							<g>
								<path style="fill:#EBEBEB;" d="M239.758,176.558c7.07,45.622,13.469,86.908,18.106,116.834          c2.39,14.917,4.325,26.993,5.669,35.379c0.698,4.15,1.241,7.378,1.615,9.608c0.194,1.074,0.344,1.901,0.451,2.494          c0.108,0.561,0.172,0.847,0.191,0.844c0.018-0.003-0.009-0.294-0.081-0.861c-0.083-0.596-0.199-1.428-0.349-2.509          c-0.338-2.235-0.829-5.471-1.46-9.631c-1.337-8.387-3.263-20.464-5.642-35.383c-4.922-29.884-11.713-71.112-19.217-116.67          c-7.537-45.529-14.295-86.77-18.999-116.653c-2.355-14.941-4.203-27.042-5.414-35.415c-0.605-4.186-1.052-7.441-1.325-9.652          c-0.273-2.211-0.373-3.378-0.286-3.391c0.087-0.013,0.356,1.13,0.786,3.318c0.43,2.188,1.02,5.421,1.75,9.589          c1.46,8.336,3.477,20.412,5.896,35.344C226.294,89.665,232.728,130.953,239.758,176.558z"/>
							</g>
						</g>
					</g>
				</g>
			</g>
		</g>
		<g>
			<g>
				<g>
					<g>
						<g>
							<g>
								<path style="fill:#EBEBEB;" d="M250.593,175.837c-0.372,46.124-0.708,87.864-0.952,118.12          c-0.047,15.093-0.084,27.311-0.11,35.796c0.018,4.203,0.033,7.474,0.042,9.732c0.018,1.09,0.031,1.929,0.041,2.531          c0.015,0.57,0.033,0.862,0.051,0.862c0.019,0,0.037-0.292,0.057-0.862c0.014-0.602,0.033-1.441,0.058-2.531          c0.025-2.258,0.062-5.529,0.109-9.732c0.031-8.484,0.076-20.703,0.132-35.796c-0.039-30.256-0.093-71.997-0.152-118.123          c-0.095-46.103-0.112-87.852,0.061-118.075c0.084-15.112,0.209-27.342,0.362-35.794c0.076-4.226,0.159-7.508,0.245-9.732          c0.086-2.225,0.174-3.393,0.261-3.393c0.086,0,0.167,1.169,0.237,3.395c0.071,2.225,0.131,5.508,0.178,9.734          c0.096,8.453,0.139,20.684,0.12,35.795C251.301,87.988,251,129.736,250.593,175.837z"/>
							</g>
						</g>
					</g>
				</g>
			</g>
		</g>
		<g>
			<g>
				<g>
					<g>
						<g>
							<g>
								<path style="fill:#EBEBEB;" d="M261.421,176.736c-7.825,45.508-14.906,86.691-20.039,116.542          c-2.484,14.903-4.494,26.968-5.891,35.345c-0.66,4.155-1.173,7.389-1.527,9.621c-0.158,1.08-0.28,1.911-0.367,2.507          c-0.076,0.566-0.106,0.857-0.087,0.86c0.019,0.003,0.085-0.283,0.197-0.843c0.111-0.592,0.266-1.418,0.468-2.491          c0.391-2.227,0.956-5.452,1.683-9.597c1.403-8.377,3.423-20.44,5.918-35.341c4.848-29.895,11.537-71.138,18.929-116.713          c7.35-45.558,14.075-86.803,19.13-116.633c2.525-14.916,4.626-26.978,6.145-35.305c0.759-4.163,1.372-7.392,1.818-9.577          c0.445-2.185,0.723-3.326,0.809-3.312c0.087,0.013-0.021,1.18-0.31,3.389c-0.289,2.209-0.758,5.46-1.393,9.643          c-1.269,8.365-3.203,20.453-5.663,35.379C276.327,90.061,269.279,131.256,261.421,176.736z"/>
							</g>
						</g>
					</g>
				</g>
			</g>
		</g>
		<g>
			<g>
				<g>
					<g>
						<g>
							<g>
								<path style="fill:#EBEBEB;" d="M271.969,179.255c-15.184,43.755-28.924,83.351-38.884,112.052          c-4.894,14.341-8.855,25.95-11.606,34.013c-1.332,4.004-2.368,7.119-3.083,9.271c-0.333,1.042-0.589,1.844-0.772,2.42          c-0.168,0.547-0.244,0.831-0.226,0.836c0.019,0.006,0.132-0.266,0.334-0.802c0.207-0.568,0.496-1.36,0.871-2.389          c0.751-2.141,1.838-5.24,3.236-9.222c2.758-8.06,6.729-19.667,11.634-34.004c9.683-28.789,23.043-68.505,37.805-112.393          c14.718-43.878,28.113-83.591,37.992-112.283c4.936-14.347,8.988-25.941,11.853-33.933c1.433-3.996,2.568-7.092,3.366-9.182          c0.798-2.09,1.26-3.174,1.345-3.148c0.085,0.026-0.212,1.163-0.859,3.301c-0.646,2.138-1.642,5.278-2.953,9.312          c-2.623,8.069-6.511,19.714-11.386,34.081C300.892,95.92,287.182,135.534,271.969,179.255z"/>
							</g>
						</g>
					</g>
				</g>
			</g>
		</g>
		<g>
			<g>
				<g>
					<g>
						<g>
							<g>
								<path style="fill:#EBEBEB;" d="M281.962,183.337c-22.153,40.915-42.201,77.941-56.732,104.778          c-7.181,13.422-12.994,24.288-17.03,31.833c-1.971,3.752-3.505,6.672-4.563,8.688c-0.5,0.979-0.884,1.733-1.16,2.273          c-0.256,0.515-0.378,0.783-0.361,0.791c0.017,0.008,0.172-0.243,0.46-0.742c0.297-0.529,0.712-1.268,1.25-2.228          c1.091-2,2.672-4.896,4.703-8.618c4.042-7.542,9.863-18.404,17.055-31.821c14.277-26.964,33.974-64.163,55.74-105.269          c21.722-41.102,41.453-78.293,55.905-105.134c7.223-13.422,13.121-24.259,17.257-31.719c2.067-3.73,3.694-6.616,4.823-8.56          c1.13-1.944,1.762-2.945,1.839-2.907c0.077,0.038-0.403,1.115-1.392,3.128c-0.989,2.013-2.488,4.963-4.444,8.748          c-3.913,7.57-9.66,18.482-16.826,31.932C324.159,105.412,304.138,142.459,281.962,183.337z"/>
							</g>
						</g>
					</g>
				</g>
			</g>
		</g>
		<g>
			<g>
				<g>
					<g>
						<g>
							<g>
								<path style="fill:#EBEBEB;" d="M291.169,188.876c-28.534,37.082-54.357,70.639-73.074,94.963          c-9.275,12.178-16.783,22.036-21.997,28.882c-2.557,3.41-4.547,6.063-5.92,7.895c-0.653,0.892-1.155,1.578-1.515,2.07          c-0.336,0.47-0.501,0.716-0.486,0.727c0.015,0.011,0.21-0.214,0.574-0.664c0.38-0.478,0.91-1.146,1.597-2.013          c1.404-1.811,3.435-4.435,6.047-7.806c5.219-6.842,12.735-16.695,22.018-28.867c18.486-24.487,43.989-58.269,72.172-95.599          c28.138-37.332,53.674-71.1,72.313-95.439c9.317-12.171,16.905-21.988,22.203-28.735c2.649-3.373,4.725-5.979,6.157-7.73          c1.432-1.75,2.219-2.644,2.29-2.594c0.07,0.05-0.579,1.041-1.883,2.881c-1.304,1.84-3.264,4.528-5.812,7.973          c-5.095,6.89-12.546,16.803-21.811,29.011C345.518,118.25,319.719,151.833,291.169,188.876z"/>
							</g>
						</g>
					</g>
				</g>
			</g>
		</g>
		<g>
			<g>
				<g>
					<g>
						<g>
							<g>
								<path style="fill:#EBEBEB;" d="M299.363,195.725c-34.186,32.364-65.123,61.652-87.547,82.882          c-11.133,10.643-20.145,19.258-26.403,25.241c-3.078,2.986-5.473,5.309-7.126,6.913c-0.789,0.783-1.397,1.386-1.832,1.819          c-0.408,0.414-0.611,0.632-0.598,0.645c0.013,0.013,0.242-0.181,0.675-0.57c0.452-0.416,1.084-0.996,1.903-1.75          c1.679-1.58,4.111-3.867,7.236-6.807c6.262-5.979,15.281-14.588,26.421-25.224c22.223-21.424,52.882-50.981,86.761-83.643          c33.837-32.67,64.526-62.208,86.875-83.464c11.173-10.63,20.257-19.193,26.582-25.066c3.162-2.936,5.634-5.2,7.332-6.715          c1.697-1.515,2.62-2.28,2.681-2.221c0.062,0.059-0.74,0.941-2.327,2.564c-1.586,1.622-3.957,3.985-7.031,7.006          c-6.148,6.044-15.112,14.722-26.239,25.397C364.476,134.085,333.559,163.402,299.363,195.725z"/>
							</g>
						</g>
					</g>
				</g>
			</g>
		</g>
		<g>
			<g>
				<g>
					<g>
						<g>
							<g>
								<path style="fill:#EBEBEB;" d="M306.349,203.714c-39.007,26.859-74.306,51.164-99.892,68.782          c-12.719,8.848-23.015,16.012-30.165,20.986c-3.523,2.489-6.265,4.426-8.157,5.764c-0.906,0.656-1.604,1.161-2.104,1.523          c-0.47,0.348-0.705,0.534-0.694,0.548c0.011,0.015,0.268-0.142,0.759-0.462c0.514-0.343,1.231-0.822,2.163-1.443          c1.914-1.309,4.686-3.205,8.249-5.642c7.154-4.969,17.455-12.126,30.18-20.966c25.418-17.841,60.486-42.454,99.237-69.653          c38.709-27.214,73.804-51.804,99.321-69.459c12.757-8.83,23.115-15.931,30.314-20.786c3.599-2.428,6.407-4.294,8.33-5.537          c1.922-1.242,2.957-1.861,3.008-1.792c0.051,0.068-0.884,0.819-2.713,2.185s-4.553,3.345-8.079,5.87          c-7.051,5.051-17.31,12.284-30.029,21.164C380.643,152.561,345.358,176.898,306.349,203.714z"/>
							</g>
						</g>
					</g>
				</g>
			</g>
		</g>
		<g>
			<g>
				<g>
					<g>
						<g>
							<g>
								<path style="fill:#EBEBEB;" d="M311.954,212.653c-42.895,20.664-81.714,39.365-109.851,52.92          c-14.001,6.828-25.336,12.356-33.207,16.195c-3.884,1.93-6.907,3.431-8.994,4.468c-1.001,0.512-1.773,0.906-2.325,1.188          c-0.521,0.273-0.784,0.421-0.775,0.438c0.008,0.016,0.288-0.1,0.825-0.342c0.564-0.261,1.35-0.626,2.372-1.1          c2.104-1.005,5.15-2.461,9.066-4.332c7.874-3.833,19.212-9.353,33.219-16.171c28.007-13.802,66.646-32.843,109.343-53.884          c42.658-21.063,81.319-40.077,109.394-53.68c14.036-6.804,25.422-12.26,33.322-15.973c3.95-1.857,7.027-3.278,9.128-4.216          c2.1-0.938,3.223-1.393,3.263-1.317c0.04,0.075-1.006,0.677-3.034,1.751c-2.029,1.074-5.041,2.62-8.934,4.585          c-7.785,3.93-19.094,9.532-33.101,16.391C393.654,173.298,354.845,192.031,311.954,212.653z"/>
							</g>
						</g>
					</g>
				</g>
			</g>
		</g>
		<g>
			<g>
				<g>
					<g>
						<g>
							<g>
								<path style="fill:#EBEBEB;" d="M316.031,222.328c-45.743,13.919-87.138,26.514-117.144,35.644          c-14.944,4.626-27.042,8.371-35.443,10.972c-4.152,1.318-7.382,2.344-9.613,3.052c-1.073,0.354-1.898,0.627-2.49,0.822          c-0.559,0.191-0.842,0.298-0.836,0.315c0.006,0.017,0.301-0.055,0.871-0.213c0.599-0.173,1.436-0.414,2.522-0.727          c2.242-0.674,5.489-1.651,9.662-2.906c8.403-2.594,20.504-6.33,35.452-10.945c29.917-9.394,71.19-22.355,116.798-36.677          c45.574-14.35,86.865-27.281,116.815-36.468c14.975-4.597,27.112-8.262,35.521-10.734c4.204-1.236,7.476-2.174,9.705-2.782          c2.228-0.608,3.411-0.887,3.439-0.806c0.027,0.081-1.104,0.517-3.283,1.271c-2.179,0.754-5.407,1.825-9.572,3.177          c-8.331,2.704-20.417,6.526-35.371,11.182C403.155,195.821,361.763,208.451,316.031,222.328z"/>
							</g>
						</g>
					</g>
				</g>
			</g>
		</g>
		<g>
			<g>
				<g>
					<g>
						<g>
							<g>
								<path style="fill:#EBEBEB;" d="M318.473,232.501c-47.452,6.826-90.393,13.004-121.518,17.482          c-15.515,2.307-28.075,4.175-36.797,5.472c-4.316,0.674-7.674,1.197-9.993,1.559c-1.117,0.187-1.977,0.331-2.594,0.435          c-0.584,0.104-0.881,0.166-0.878,0.184c0.003,0.018,0.306-0.009,0.895-0.079c0.62-0.08,1.486-0.192,2.61-0.337          c2.324-0.327,5.691-0.801,10.017-1.409c8.723-1.291,21.284-3.15,36.801-5.447c31.082-4.751,73.962-11.306,121.347-18.549          c47.355-7.275,90.248-13.798,121.33-18.34c15.54-2.274,28.126-4.058,36.835-5.227c4.354-0.585,7.739-1.016,10.039-1.28          c2.3-0.264,3.514-0.361,3.527-0.277c0.014,0.084-1.175,0.343-3.451,0.758c-2.275,0.415-5.638,0.984-9.973,1.689          c-8.67,1.409-21.231,3.355-36.761,5.691C408.849,219.502,365.906,225.714,318.473,232.501z"/>
							</g>
						</g>
					</g>
				</g>
			</g>
		</g>
	</g>
	<g>
		<g>
			<g>
				<g>
					<g>
						<path style="fill:#E0E0E0;" d="M43.826,241.598c28.699-15.478,57.217-6.759,57.217-6.759        C80.637,253.405,43.826,241.598,43.826,241.598z"/>
					</g>
				</g>
			</g>
		</g>
		<g>
			<g>
				<g>
					<g>
						<path style="fill:#E0E0E0;" d="M134.586,213.555c5.646,19.197-3.346,36.269-3.346,36.269        C122.644,235.535,134.586,213.555,134.586,213.555z"/>
					</g>
				</g>
			</g>
		</g>
		<g>
			<g>
				<g>
					<g>
						<path style="fill:#E0E0E0;" d="M131.423,258.86c-21.328,11.078-43.481,4.534-43.481,4.534        C102.81,250.001,131.423,258.86,131.423,258.86z"/>
					</g>
				</g>
			</g>
		</g>
		<g>
			<g>
				<g>
					<g>
						<g>
							<path style="fill:#E0E0E0;" d="M86.657,217.574c0.279-0.349,14.092,10.214,30.851,23.589         c16.764,13.38,30.124,24.505,29.846,24.854c-0.278,0.349-14.089-10.212-30.853-23.592         C99.742,229.05,86.379,217.922,86.657,217.574z"/>
						</g>
					</g>
				</g>
			</g>
		</g>
		<g>
			<g>
				<g>
					<g>
						<path style="fill:#E0E0E0;" d="M42.273,190.957c0,0,37.14,1.993,50.703,32.33C92.976,223.287,61.262,222.024,42.273,190.957z"/>
					</g>
				</g>
			</g>
		</g>
		<g>
			<g>
				<g>
					<g>
						<path style="fill:#E0E0E0;" d="M94.011,179.758c0,0,28.633,23.739,21.438,56.182        C115.449,235.94,90.739,216.021,94.011,179.758z"/>
					</g>
				</g>
			</g>
		</g>
	</g>
	<g>
		<g>
			<g>
				<g>
					<g>
						<path style="fill:#E0E0E0;" d="M431.498,407.302c-26.898-13.718-53.114-5.039-53.114-5.039        C397.671,419.016,431.498,407.302,431.498,407.302z"/>
					</g>
				</g>
			</g>
		</g>
		<g>
			<g>
				<g>
					<g>
						<path style="fill:#E0E0E0;" d="M346.878,383.273c-4.819,17.892,3.87,33.506,3.87,33.506        C358.402,403.367,346.878,383.273,346.878,383.273z"/>
					</g>
				</g>
			</g>
		</g>
		<g>
			<g>
				<g>
					<g>
						<path style="fill:#E0E0E0;" d="M350.771,425.147c19.981,9.802,40.349,3.272,40.349,3.272        C377.072,416.337,350.771,425.147,350.771,425.147z"/>
					</g>
				</g>
			</g>
		</g>
		<g>
			<g>
				<g>
					<g>
						<g>
							<path style="fill:#E0E0E0;" d="M391.335,385.973c-0.265-0.317-12.828,9.756-28.058,22.495         c-15.235,12.744-27.366,23.328-27.101,23.644c0.265,0.317,12.826-9.754,28.061-22.497         C379.466,396.876,391.6,386.289,391.335,385.973z"/>
						</g>
					</g>
				</g>
			</g>
		</g>
		<g>
			<g>
				<g>
					<g>
						<path style="fill:#E0E0E0;" d="M431.857,360.387c0,0-34.341,2.636-46.25,31.01        C385.607,391.396,414.939,389.552,431.857,360.387z"/>
					</g>
				</g>
			</g>
		</g>
		<g>
			<g>
				<g>
					<g>
						<path style="fill:#E0E0E0;" d="M383.722,351.121c0,0-26.002,22.586-18.651,52.468        C365.071,403.588,387.523,384.623,383.722,351.121z"/>
					</g>
				</g>
			</g>
		</g>
	</g>
	<g>
		<g>
			<g>
				<g>
					<g>
						<path style="fill:#E0E0E0;" d="M381.447,78.973c-27.525-2.645-46.942,13.56-46.942,13.56        C356.566,100.323,381.447,78.973,381.447,78.973z"/>
					</g>
				</g>
			</g>
		</g>
		<g>
			<g>
				<g>
					<g>
						<path style="fill:#E0E0E0;" d="M301.282,86.944c1.909,16.862,14.558,27.243,14.558,27.243        C317.852,100.19,301.282,86.944,301.282,86.944z"/>
					</g>
				</g>
			</g>
		</g>
		<g>
			<g>
				<g>
					<g>
						<path style="fill:#E0E0E0;" d="M318.672,121.309c20.317,1.635,35.474-10.775,35.474-10.775        C338.117,104.964,318.672,121.309,318.672,121.309z"/>
					</g>
				</g>
			</g>
		</g>
		<g>
			<g>
				<g>
					<g>
						<g>
							<path style="fill:#E0E0E0;" d="M340.062,74.302c-0.333-0.181-7.65,12.623-16.342,28.594         c-8.695,15.977-15.473,29.071-15.141,29.252c0.332,0.181,7.648-12.62,16.344-28.597         C333.615,87.58,340.394,74.482,340.062,74.302z"/>
						</g>
					</g>
				</g>
			</g>
		</g>
		<g>
			<g>
				<g>
					<g>
						<path style="fill:#E0E0E0;" d="M365.983,38.885c0,0-28.369,13.788-28.978,41.963        C337.005,80.848,361.373,69.417,365.983,38.885z"/>
					</g>
				</g>
			</g>
		</g>
		<g>
			<g>
				<g>
					<g>
						<path style="fill:#E0E0E0;" d="M321.862,47.17c0,0-14.559,27.981,1.746,50.966C323.608,98.136,336.361,74.433,321.862,47.17z"/>
					</g>
				</g>
			</g>
		</g>
	</g>
</g>
<g id="Background_Simple" style="display:none;">
	<g style="display:inline;">
		<path style="fill:#F5F5F5;" d="M404.051,103.095l-2.17-3.576C383.587,69.373,350.512,51.2,315.64,53.405    c-4.483,0.283-8.946,0.89-13.35,1.833c-31.706,6.787-59.294,30.764-70.729,61.471c-6.725,18.059-8.604,38.852-21.367,53.187    c-16.61,18.656-44.808,19.242-69.601,18.469c-24.792-0.773-53.01-0.114-69.539,18.616c-10.352,11.73-13.642,28.41-12.807,44.119    c2.21,41.589,31.19,78.776,68.045,97.26c36.856,18.484,80.249,20.139,120.585,12.008c56.506-11.391,110.243-42.672,142.543-90.987    S429.895,155.242,404.051,103.095z"/>
	</g>
	<g style="display:inline;">
		<circle style="fill:#F5F5F5;" cx="405.865" cy="343.524" r="34.131"/>
	</g>
	<g style="display:inline;">
		<circle style="fill:#F5F5F5;" cx="107.457" cy="90.784" r="34.131"/>
	</g>
</g>
<g id="Table">
	<g>
		<g>
			<path style="fill:#263238;" d="M469.348,476.564c0,0.144-98.213,0.26-219.338,0.26c-121.166,0-219.359-0.117-219.359-0.26     c0-0.144,98.193-0.26,219.359-0.26C371.135,476.303,469.348,476.42,469.348,476.564z"/>
		</g>
	</g>
</g>
<g id="Character_1_">
	<g>
		<g>
			<g>
				<g>
					<g>
						<g>
							<g>
								<g>
									<path style="fill:#263238;" d="M270.003,100.102c11.067-0.191,21.589,16.889,20.527,26.791           c-0.516,4.81-2.223,10.375,1.622,13.766c3.806,3.356,11.36,2.751,15.005,6.223c0,0,4.67,4.471,4.549,10.522           c-0.121,6.052,1.275,14.04,5.918,15.996l-21.931,9.459c-2.465-2.396-3.623-6.285-6.088-8.682           c2.806,2.503,5.93,11.711-6.015,13.25l-7.883-6.697c-20.087,6.415-41.124,14.229-58.002,5.456"/>
								</g>
							</g>
						</g>
					</g>
					<g>
						<g>
							<g>
								<g>
									<path style="fill:#263238;" d="M166.362,157.153c1.343-4.605,3.707-8.909,4.56-13.63           c1.831-10.146-3.441-21.334,1.158-30.563c3.273-6.568,10.587-9.967,17.528-12.35c6.941-2.383,13.61-3.92,18.672-9.232           c3.713-3.896,5.729-9.163,9.429-13.072c5.273-5.57,13.254-7.656,20.891-8.37c7.842-0.734,15.992-0.238,23.17,3.004           c7.178,3.242,13.256,9.566,14.763,17.298c0.735,3.769,0.397,7.755,1.708,11.365c1.441,3.97,4.693,6.989,6.755,10.675           c4.358,7.788,2.475,18.523-4.274,24.362l-51.719,71.409c-11.196,4.643-24.334-9.217-33.361-17.306           C186.614,182.653,162.969,168.791,166.362,157.153z"/>
								</g>
							</g>
						</g>
					</g>
					<g>
						<g>
							<path style="fill:#FFBF9D;" d="M279.012,127.832c-2.73-15.75-15.36-34.061-30.979-30.666l-47.981,17.855         c-4.745,1.031-7.114,4.988-4.229,3.767l15.556,114.373l33.568,22.765l19.409-28.581c-0.935-9.618-1.302-16.489-1.302-16.489         s20.036-3.776,21.349-30.669C285.057,166.813,282.044,145.33,279.012,127.832z"/>
						</g>
					</g>
					<g>
						<g>
							<g>
								<g>
									<g>
										<g>
											<g>
												<g>
													<g>
														<g>
															<g>
																<g>
																	<g>
																		<g>
																			<g>
																				<g>
																					<g>
																						<g>
																							<g>
																								<g>
																									<g>
																										<g>
																											<g>
																												<path style="fill:#263238;" d="M238.165,155.039c0.259,1.783-1.038,3.473-2.896,3.777                              c-1.854,0.303-3.569-0.891-3.828-2.675c-0.258-1.783,1.038-3.475,2.892-3.779                              C236.191,152.057,237.906,153.256,238.165,155.039z"/>
																											</g>
																										</g>
																									</g>
																								</g>
																							</g>
																						</g>
																					</g>
																				</g>
																			</g>
																		</g>
																	</g>
																</g>
															</g>
														</g>
													</g>
												</g>
											</g>
											<g>
												<g>
													<g>
														<g>
															<g>
																<g>
																	<g>
																		<g>
																			<g>
																				<g>
																					<g>
																						<g>
																							<g>
																								<g>
																									<g>
																										<g>
																											<g>
																												<path style="fill:#263238;" d="M271.749,151.765c0.259,1.783-1.038,3.473-2.896,3.777                              c-1.853,0.304-3.569-0.891-3.828-2.675c-0.258-1.783,1.038-3.475,2.891-3.779                              C269.774,148.784,271.49,149.981,271.749,151.765z"/>
																											</g>
																										</g>
																									</g>
																								</g>
																							</g>
																						</g>
																					</g>
																				</g>
																			</g>
																		</g>
																	</g>
																</g>
															</g>
														</g>
													</g>
												</g>
											</g>
											<g>
												<g>
													<g>
														<g>
															<g>
																<g>
																	<g>
																		<g>
																			<g>
																				<g>
																					<g>
																						<g>
																							<g>
																								<g>
																									<g>
																										<g>
																											<g>
																												<g>
																													<path style="fill:#263238;" d="M276.492,140.108c-0.349,0.635-3.576-1.264-7.516-0.561                               c-3.947,0.637-6.394,3.499-6.928,3.014c-0.257-0.211,0.016-1.294,1.074-2.58                               c1.038-1.277,2.958-2.68,5.415-3.099c2.458-0.415,4.723,0.273,6.113,1.139                               C276.067,138.889,276.668,139.821,276.492,140.108z"/>
																												</g>
																											</g>
																										</g>
																									</g>
																								</g>
																							</g>
																						</g>
																					</g>
																				</g>
																			</g>
																		</g>
																	</g>
																</g>
															</g>
														</g>
													</g>
												</g>
											</g>
										</g>
										<g>
											<g>
												<g>
													<g>
														<g>
															<g>
																<g>
																	<g>
																		<g>
																			<g>
																				<g>
																					<g>
																						<g>
																							<g>
																								<g>
																									<g>
																										<g>
																											<g>
																												<g>
																													<path style="fill:#263238;" d="M240.391,145.27c-0.448,0.587-3.633-1.571-7.884-1.253                               c-4.255,0.252-7.194,2.82-7.699,2.296c-0.245-0.232,0.171-1.263,1.453-2.421                               c1.256-1.153,3.458-2.343,6.109-2.522c2.651-0.174,4.962,0.71,6.328,1.688                               C240.087,144.038,240.611,145.005,240.391,145.27z"/>
																												</g>
																											</g>
																										</g>
																									</g>
																								</g>
																							</g>
																						</g>
																					</g>
																				</g>
																			</g>
																		</g>
																	</g>
																</g>
															</g>
														</g>
													</g>
												</g>
											</g>
										</g>
										<g>
											<g>
												<g>
													<g>
														<g>
															<g>
																<g>
																	<g>
																		<g>
																			<g>
																				<g>
																					<g>
																						<g>
																							<g>
																								<g>
																									<g>
																										<g>
																											<g>
																												<g>
																													<path style="fill:#263238;" d="M255.965,169.758c-0.039-0.205,2.186-0.844,5.809-1.715                               c0.921-0.198,1.782-0.479,1.87-1.132c0.146-0.698-0.353-1.658-0.923-2.694                               c-1.122-2.158-2.297-4.421-3.529-6.793c-4.927-9.682-8.603-17.685-8.212-17.879                               c0.391-0.195,4.704,7.494,9.631,17.176c1.192,2.39,2.332,4.668,3.418,6.848                               c0.469,1.02,1.205,2.155,0.882,3.603c-0.175,0.723-0.803,1.303-1.383,1.529                               c-0.577,0.247-1.101,0.314-1.558,0.393C258.295,169.698,256.002,169.965,255.965,169.758z"/>
																												</g>
																											</g>
																										</g>
																									</g>
																								</g>
																							</g>
																						</g>
																					</g>
																				</g>
																			</g>
																		</g>
																	</g>
																</g>
															</g>
														</g>
													</g>
												</g>
											</g>
										</g>
										<g>
											<g>
												<g>
													<g>
														<g>
															<g>
																<g>
																	<g>
																		<g>
																			<g>
																				<g>
																					<g>
																						<g>
																							<g>
																								<g>
																									<g>
																										<g>
																											<g>
																												<path style="fill:#FF9A6C;" d="M263.196,210.954c0,0-17.659,3.088-36.433-5.581                              c0,0,10.652,18.78,36.84,13.42L263.196,210.954z"/>
																											</g>
																										</g>
																									</g>
																								</g>
																							</g>
																						</g>
																					</g>
																				</g>
																			</g>
																		</g>
																	</g>
																</g>
															</g>
														</g>
													</g>
												</g>
											</g>
										</g>
									</g>
								</g>
							</g>
							<g>
								<g>
									<g>
										<g>
											<g>
												<g>
													<g>
														<g>
															<g>
																<g>
																	<g>
																		<g>
																			<g>
																				<g>
																					<g>
																						<g>
																							<g>
																								<g>
																									<path style="fill:#263238;" d="M239.642,132.819c-0.251,1.032-3.945,0.959-8.168,1.942                           c-4.244,0.898-7.559,2.527-8.224,1.699c-0.3-0.397,0.2-1.396,1.491-2.509                           c1.278-1.109,3.386-2.262,5.924-2.829c2.539-0.561,4.936-0.41,6.564,0.054                           C238.87,131.638,239.746,132.331,239.642,132.819z"/>
																								</g>
																							</g>
																						</g>
																					</g>
																				</g>
																			</g>
																		</g>
																	</g>
																</g>
															</g>
														</g>
													</g>
												</g>
											</g>
										</g>
									</g>
								</g>
							</g>
							<g>
								<g>
									<g>
										<g>
											<g>
												<g>
													<g>
														<g>
															<g>
																<g>
																	<g>
																		<g>
																			<g>
																				<g>
																					<g>
																						<g>
																							<g>
																								<g>
																									<path style="fill:#263238;" d="M274.697,126.964c-0.643,0.908-3.609,0.362-7.067,0.698                           c-3.468,0.23-6.318,1.253-7.086,0.46c-0.341-0.389,0.029-1.269,1.221-2.193                           c1.174-0.919,3.21-1.788,5.592-1.984c2.379-0.192,4.518,0.334,5.812,1.051                           C274.482,125.715,274.976,126.524,274.697,126.964z"/>
																								</g>
																							</g>
																						</g>
																					</g>
																				</g>
																			</g>
																		</g>
																	</g>
																</g>
															</g>
														</g>
													</g>
												</g>
											</g>
										</g>
									</g>
								</g>
							</g>
						</g>
					</g>
					<g>
						<g>
							<g>
								<g>
									<path style="fill:#263238;" d="M150.423,152.862c2.277-4.754-2.815-9.675,0.815-14.138           c3.311-4.07,12.543-4.67,15.636-8.804c2.417-3.228,2.484-4.051,2.424-6.962c-0.075-3.645,0.804-19.026,22.976-23.25           l3.794,13.746c1.36-0.723,2.779-1.361,4.179-1.954c17.846-7.555,36.595-12.973,55.719-16.104           c2.518,3.866,0.478,9.302-3.04,12.288c-3.517,2.986-8.118,4.267-12.386,6.021c-4.267,1.754-8.616,4.384-10.259,8.694           c-1.747,4.586,0.021,9.893-1.493,14.559c-2.606,8.03-13.603,10.944-16.163,18.988c-1.936,6.084,1.753,12.377,2.826,18.671           c1.217,7.132-1.194,14.79-6.276,19.939c-4.009,4.061-1.382,12.246-1.382,12.246l-71.622-36.614           C132.32,161.973,147.306,159.368,150.423,152.862z"/>
								</g>
							</g>
						</g>
					</g>
				</g>
				<g>
					<g>
						<g>
							<g>
								<g>
									<path style="fill:#b5dbff;" d="M164.986,185.544c0.008-0.005-0.048-0.142-0.166-0.404c-0.113-0.264-0.32-0.639-0.472-1.179           c-0.359-1.048-0.701-2.706-0.438-4.812c0.258-2.077,1.173-4.654,3.27-6.808c1.043-1.072,2.41-1.957,4.016-2.498           c1.61-0.545,3.43-0.789,5.237-1.514c0.899-0.36,1.781-0.89,2.5-1.632c0.726-0.736,1.245-1.681,1.591-2.686           c0.679-2.032,0.678-4.28,0.447-6.517c-0.238-2.234-0.634-4.532-0.432-6.879c0.111-1.165,0.391-2.333,0.957-3.383           c0.614-1.012,1.359-1.994,2.393-2.68c2.006-1.45,4.52-2.176,7.035-2.932c2.508-0.765,5.195-1.51,7.468-3.201           c1.143-0.82,2.08-1.958,2.737-3.228c0.657-1.281,0.994-2.699,1.197-4.115c0.399-2.845,0.255-5.74,0.645-8.593           c0.735-5.72,4.746-10.606,9.688-12.748c2.473-1.121,5.179-1.318,7.797-1.71c1.31-0.199,2.619-0.449,3.855-0.924           c1.236-0.46,2.392-1.172,3.263-2.15c1.77-1.983,2.286-4.54,2.989-6.78c0.642-2.289,1.738-4.328,3.14-6.046           c2.852-3.403,6.74-5.447,10.455-6.034c3.741-0.635,7.223,0.246,9.872,1.624c2.674,1.395,4.569,3.253,5.872,4.914           c1.274,1.697,1.999,3.202,2.374,4.253c0.226,0.514,0.308,0.937,0.41,1.206c0.089,0.273,0.138,0.413,0.147,0.411           c0,0-0.097-0.586-0.456-1.654c-0.346-1.071-1.046-2.605-2.309-4.342c-1.293-1.7-3.193-3.609-5.899-5.054           c-2.679-1.427-6.236-2.359-10.072-1.732c-3.808,0.578-7.794,2.643-10.737,6.124c-1.445,1.747-2.592,3.874-3.249,6.191           c-0.711,2.265-1.246,4.751-2.904,6.587c-1.65,1.859-4.264,2.535-6.828,2.9c-2.58,0.383-5.36,0.576-7.93,1.735           c-5.107,2.206-9.244,7.239-10.008,13.155c-0.397,2.921-0.252,5.816-0.642,8.592c-0.197,1.382-0.522,2.742-1.142,3.952           c-0.622,1.201-1.493,2.266-2.58,3.048c-4.408,3.189-10.221,3.11-14.478,6.153c-1.082,0.723-1.883,1.771-2.528,2.851           c-0.6,1.122-0.889,2.358-1.001,3.568c-0.199,2.434,0.216,4.755,0.459,6.969c0.238,2.202,0.242,4.398-0.397,6.338           c-0.325,0.96-0.809,1.85-1.485,2.543c-0.67,0.699-1.493,1.204-2.359,1.557c-1.737,0.713-3.558,0.974-5.201,1.541           c-1.65,0.568-3.063,1.501-4.122,2.611c-2.134,2.235-3.031,4.874-3.262,6.992c-0.236,2.148,0.147,3.825,0.542,4.873           c0.171,0.54,0.395,0.911,0.526,1.168C164.906,185.42,164.979,185.548,164.986,185.544z"/>
								</g>
							</g>
						</g>
					</g>
				</g>
			</g>
			<g>
				<g>
					<path style="fill:#FF9A6C;" d="M254.924,176.886c-3.64-0.766-8.216-1.903-11.857-2.669c-1.505,3.027-0.848,6.984,1.553,9.363       c2.401,2.378,6.365,2.997,9.377,1.463"/>
				</g>
				<g>
					<g>
						<path style="fill:#263238;" d="M253.998,185.043c0.028,0.051-0.339,0.351-1.129,0.674c-0.787,0.301-2.026,0.608-3.566,0.459        c-1.521-0.138-3.375-0.738-4.916-2.16c-1.534-1.412-2.572-3.63-2.638-6.024c-0.044-1.428,0.275-2.822,0.865-3.999l0.177-0.354        l0.38,0.084c3.493,0.772,6.523,1.484,8.674,2.033c2.15,0.549,3.421,0.934,3.396,1.054c-0.025,0.12-1.342-0.046-3.529-0.421        c-2.187-0.375-5.244-0.959-8.749-1.676l0.557-0.27c-0.496,1.033-0.769,2.255-0.73,3.52c0.059,2.121,0.952,4.09,2.26,5.359        c1.315,1.284,2.956,1.908,4.343,2.123c1.402,0.228,2.573,0.055,3.356-0.115C253.534,185.14,253.96,184.967,253.998,185.043z"/>
					</g>
				</g>
			</g>
		</g>
		<g>
			<g>
				<g>
					<path style="fill:#FFBF9D;" d="M128.789,304.287c-0.353,2.676-17.836,53.037-23.782,87.265       c-1.84,10.594,2.904,17.102,4.878,20.015c5.814,8.583,34.782,30.932,34.782,30.932l13.591,8.524       c2.351-10.283,8.823-15.954,8.396-24.328c0,0-6.063-4.028-10.422-15.251c-4.519-11.636-11.471-18.868-11.471-18.868       l26.688-72.34L128.789,304.287z"/>
				</g>
				<g>
					<path style="fill:#b5dbff;" d="M175.252,236.316l34.9-12.174l0,0c5.694,10.814,13.979,17.022,26.716,16.911       c13.503-0.118,21.04-6.726,27.616-18.161l6.623,1.251l43.307,8.814l6.496,81.122l-5.99,74.975l13.894,74.689       c-54.747,6.805-105.2,8.219-160.376,0.837l8.521-70.328l-17.622-152.232L175.252,236.316z"/>
				</g>
				<g>
					<path style="fill:#b5dbff;" d="M162.259,243.03l-2.922-1.011c0,0-16.761,8.015-29.764,44.1       c-11.825,32.815-19.688,48.899-19.688,48.899l55.074,20.166l11.355-49.714L162.259,243.03z"/>
				</g>
				<g>
					<g>
						<path style="fill:#FF9A6C;" d="M144.665,393.159c-0.058,0.161-1.476-0.267-3.814-0.519c-2.325-0.26-5.619-0.24-9.03,0.741        c-3.411,0.98-6.165,2.699-7.947,4.139c-1.798,1.44-2.727,2.543-2.869,2.439c-0.108-0.069,0.602-1.352,2.33-2.998        c1.707-1.64,4.547-3.569,8.159-4.606c3.61-1.039,7.1-0.93,9.479-0.464C143.374,392.352,144.715,393.045,144.665,393.159z"/>
					</g>
				</g>
			</g>
			<g>
				<path style="fill:#b5dbff;" d="M314.414,232.956L314.414,232.956c3.585,1.614,10.951,6.042,14.642,10.07l38.065,38.246      l-31.262,55.102l-25.235-19.607L314.414,232.956z"/>
			</g>
			<g>
				<g>
					<path style="fill:#263238;" d="M323.187,277.202c0.009,0.001,0.01,0.1,0.004,0.294c-0.011,0.223-0.025,0.506-0.042,0.86       c-0.051,0.792-0.122,1.897-0.212,3.302c-0.215,2.904-0.522,7.041-0.9,12.136c-0.796,10.245-2.018,24.388-3.362,40.007       c-1.344,15.624-2.452,29.775-3.189,40.023c-0.363,5.096-0.657,9.233-0.864,12.137c-0.106,1.404-0.19,2.508-0.25,3.299       c-0.032,0.353-0.058,0.635-0.078,0.857c-0.021,0.193-0.035,0.292-0.044,0.291c-0.009-0.001-0.012-0.1-0.009-0.294       c0.007-0.223,0.016-0.506,0.026-0.86c0.036-0.793,0.088-1.899,0.152-3.305c0.138-2.87,0.379-7.021,0.698-12.149       c0.643-10.256,1.693-24.416,3.037-40.042c1.371-15.601,2.612-29.725,3.514-39.993c0.447-5.09,0.81-9.221,1.065-12.122       c0.132-1.402,0.235-2.504,0.309-3.295c0.038-0.352,0.069-0.634,0.094-0.856C323.161,277.299,323.178,277.201,323.187,277.202z"/>
				</g>
			</g>
			<g>
				<g>
					<path style="fill:#263238;" d="M163.898,281.423c0.009-0.001,0.028,0.076,0.056,0.228c0.031,0.183,0.068,0.405,0.113,0.676       c0.095,0.64,0.223,1.51,0.385,2.608c0.327,2.266,0.763,5.549,1.277,9.61c1.03,8.121,2.307,19.358,3.611,31.777       c1.302,12.403,2.481,23.628,3.34,31.808c0.432,4.034,0.784,7.314,1.033,9.637c0.111,1.104,0.199,1.979,0.264,2.622       c0.022,0.274,0.04,0.498,0.055,0.683c0.01,0.154,0.01,0.234,0.001,0.235s-0.027-0.076-0.054-0.229       c-0.029-0.183-0.064-0.406-0.107-0.677c-0.089-0.641-0.209-1.512-0.361-2.611c-0.305-2.268-0.713-5.555-1.197-9.619       c-0.97-8.128-2.188-19.371-3.492-31.795c-1.304-12.419-2.522-23.658-3.458-31.788c-0.466-4.03-0.844-7.307-1.113-9.628       c-0.121-1.103-0.217-1.977-0.288-2.62c-0.025-0.274-0.045-0.498-0.062-0.683C163.891,281.504,163.889,281.424,163.898,281.423z       "/>
				</g>
			</g>
			<g>
				<g>
					<path style="fill:#263238;" d="M271.107,224.142c0.017,0.005-0.067,0.298-0.243,0.85c-0.162,0.558-0.461,1.359-0.875,2.382       c-0.841,2.035-2.312,4.903-4.735,8.031c-2.44,3.094-5.889,6.43-10.447,9.027c-4.531,2.621-10.197,4.327-16.239,4.563       c-6.045,0.202-11.821-1.09-16.53-3.379c-4.735-2.261-8.415-5.339-11.072-8.25c-2.643-2.945-4.317-5.7-5.302-7.668       c-0.487-0.99-0.843-1.767-1.045-2.312c-0.216-0.538-0.32-0.824-0.304-0.83c0.017-0.007,0.154,0.265,0.4,0.788       c0.232,0.53,0.616,1.29,1.128,2.26c1.035,1.928,2.743,4.629,5.394,7.513c2.665,2.849,6.326,5.859,11.007,8.065       c4.653,2.232,10.346,3.49,16.306,3.292c5.956-0.233,11.542-1.898,16.021-4.46c4.508-2.537,7.942-5.804,10.395-8.838       c2.436-3.067,3.945-5.885,4.838-7.883c0.44-1.004,0.769-1.79,0.962-2.335C270.972,224.418,271.09,224.136,271.107,224.142z"/>
				</g>
			</g>
			<g>
				<g>
					<path style="fill:#263238;" d="M162.278,279.587c-0.08,0.119-5.133-3.123-11.284-7.242c-6.153-4.12-11.075-7.556-10.995-7.675       c0.08-0.12,5.132,3.122,11.285,7.243C157.435,276.031,162.358,279.468,162.278,279.587z"/>
				</g>
			</g>
			<g>
				<g>
					<path style="fill:#263238;" d="M336.942,256.035c0.123,0.075-2.244,4.196-5.287,9.203c-3.044,5.009-5.61,9.008-5.733,8.934       c-0.123-0.075,2.244-4.195,5.287-9.204C334.253,259.96,336.819,255.96,336.942,256.035z"/>
				</g>
			</g>
		</g>
		<g>
			<g style="opacity:0.1;">
				
					<ellipse transform="matrix(0.2267 -0.974 0.974 0.2267 -113.2447 476.6012)" style="fill:#FFFFFF;" cx="243.507" cy="309.614" rx="31.703" ry="31.703"/>
			</g>
			<g>
				<g>
					<g>
						<g>
							<g>
								<g>
									<g>
										<g>
											<g>
												<path style="fill:#1447e6;" d="M263.818,308.009c0-11.293-9.155-20.447-20.447-20.447              c-11.293,0-20.447,9.155-20.447,20.447c0,8.176,4.8,15.228,11.735,18.5c0,2.423,0,5.159,0,5.159h17.921              c0,0,0.108-2.895,0.148-5.48C259.313,322.791,263.818,315.928,263.818,308.009z"/>
											</g>
										</g>
									</g>
								</g>
							</g>
							<g>
								<g>
									<g>
										<g>
											<g>
												<path style="fill:#263238;" d="M252.57,334.985h-17.778c-0.737,0-1.334-0.517-1.334-1.155l0,0              c0-0.638,0.597-1.155,1.334-1.155h17.778c0.737,0,1.334,0.517,1.334,1.155l0,0              C253.904,334.468,253.307,334.985,252.57,334.985z"/>
											</g>
										</g>
									</g>
								</g>
							</g>
							<g>
								<g>
									<g>
										<g>
											<g>
												<path style="fill:#263238;" d="M251.2,335.993l-15.387,0c-0.638,0-1.155,0.517-1.155,1.155              c0,0.638,0.517,1.155,1.155,1.155h1.689l2.241,4.265c0.256,0.488,0.762,0.793,1.313,0.793h5.498              c0.556,0,1.066-0.312,1.32-0.807l2.178-4.251h1.148c0.638,0,1.155-0.517,1.155-1.155              C252.355,336.51,251.838,335.993,251.2,335.993z"/>
											</g>
										</g>
									</g>
								</g>
							</g>
						</g>
						<g>
							<g>
								<g>
									<g>
										<g>
											<g>
												<path style="fill:#b5dbff;" d="M247.588,342.918c-0.018,0.038-0.405-0.139-1.057-0.326              c-0.65-0.188-1.578-0.357-2.61-0.329c-1.032,0.032-1.949,0.254-2.588,0.479c-0.64,0.224-1.016,0.423-1.036,0.386              c-0.014-0.023,0.333-0.279,0.973-0.552c0.637-0.274,1.578-0.532,2.643-0.565c1.065-0.029,2.02,0.174,2.671,0.411              C247.239,342.659,247.601,342.895,247.588,342.918z"/>
											</g>
										</g>
									</g>
								</g>
							</g>
						</g>
						<g>
							<g>
								<g>
									<g>
										<g>
											<g>
												<path style="fill:#b5dbff;" d="M250.085,338.355c0,0.069-2.782,0.126-6.213,0.126c-3.432,0-6.213-0.056-6.213-0.126              c0-0.069,2.781-0.125,6.213-0.125C247.303,338.229,250.085,338.285,250.085,338.355z"/>
											</g>
										</g>
									</g>
								</g>
							</g>
						</g>
						<g>
							<g>
								<g>
									<g>
										<g>
											<g>
												<path style="fill:#b5dbff;" d="M249.122,340.18c0.002,0.034-0.577,0.095-1.515,0.154              c-0.938,0.059-2.235,0.113-3.669,0.133c-1.434,0.02-2.733,0.003-3.672-0.029c-0.939-0.032-1.52-0.077-1.519-0.111              c0.001-0.035,0.582-0.053,1.521-0.066c1.014-0.012,2.274-0.027,3.667-0.044c1.393-0.022,2.652-0.043,3.666-0.059              C248.539,340.143,249.12,340.145,249.122,340.18z"/>
											</g>
										</g>
									</g>
								</g>
							</g>
						</g>
					</g>
					<g>
						<g>
							<g>
								<path style="fill:#FFFFFF;" d="M237.924,291.543c0.053,0.209-1.409,0.596-3.442,1.792c-2.022,1.169-4.596,3.312-6.263,6.452          c-1.661,3.145-1.985,6.479-1.816,8.808c0.155,2.354,0.656,3.78,0.454,3.854c-0.134,0.065-0.972-1.271-1.387-3.748          c-0.426-2.438-0.245-6.091,1.575-9.536c1.826-3.441,4.745-5.644,7-6.662C236.325,291.454,237.902,291.396,237.924,291.543z"/>
							</g>
						</g>
					</g>
					<g>
						<g>
							<g>
								<path style="fill:#FFFFFF;" d="M243.842,290.463c0.066,0.361-0.298,0.729-0.813,0.823c-0.515,0.094-0.986-0.123-1.051-0.484          c-0.066-0.361,0.299-0.729,0.814-0.823C243.306,289.885,243.776,290.102,243.842,290.463z"/>
							</g>
						</g>
					</g>
				</g>
				<g>
					<g>
						<path style="fill:#E0E0E0;" d="M203.181,330.14l0.67,0.716c0.064,0.069,0.159,0.102,0.252,0.088l0.97-0.146        c0.235-0.035,0.408,0.214,0.294,0.422l-0.474,0.859c-0.046,0.082-0.048,0.182-0.005,0.267l0.438,0.877        c0.106,0.212-0.077,0.454-0.311,0.409l-0.963-0.186c-0.093-0.018-0.188,0.011-0.255,0.077l-0.699,0.688        c-0.169,0.167-0.456,0.067-0.485-0.169l-0.121-0.973c-0.012-0.094-0.069-0.175-0.152-0.219l-0.87-0.452        c-0.211-0.109-0.204-0.413,0.011-0.514l0.888-0.416c0.085-0.04,0.146-0.119,0.161-0.212l0.161-0.967        C202.728,330.054,203.019,329.966,203.181,330.14z"/>
					</g>
				</g>
				<g>
					<g>
						<path style="fill:#E0E0E0;" d="M290.328,304.487l0.545,1.105c0.052,0.106,0.154,0.18,0.271,0.197l1.219,0.177        c0.295,0.043,0.413,0.406,0.199,0.614l-0.882,0.86c-0.085,0.083-0.124,0.202-0.103,0.319l0.208,1.214        c0.05,0.294-0.258,0.518-0.522,0.379l-1.09-0.573c-0.105-0.055-0.23-0.055-0.335,0l-1.09,0.573        c-0.264,0.139-0.573-0.085-0.522-0.379l0.208-1.214c0.02-0.117-0.019-0.236-0.103-0.319l-0.882-0.86        c-0.214-0.208-0.096-0.571,0.199-0.614l1.219-0.177c0.117-0.017,0.219-0.091,0.271-0.197l0.545-1.105        C289.815,304.22,290.196,304.22,290.328,304.487z"/>
					</g>
				</g>
				<g>
					<g>
						<path style="fill:#E0E0E0;" d="M225.599,260.824l0.545,1.105c0.053,0.106,0.154,0.18,0.271,0.197l1.219,0.177        c0.295,0.043,0.413,0.406,0.2,0.614l-0.882,0.86c-0.085,0.083-0.123,0.202-0.104,0.318l0.208,1.214        c0.05,0.294-0.258,0.518-0.522,0.379l-1.09-0.573c-0.105-0.055-0.23-0.055-0.335,0l-1.09,0.573        c-0.264,0.139-0.573-0.085-0.522-0.379l0.208-1.214c0.02-0.117-0.019-0.236-0.104-0.318l-0.882-0.86        c-0.214-0.208-0.096-0.571,0.199-0.614l1.219-0.177c0.117-0.017,0.218-0.091,0.271-0.197l0.545-1.105        C225.085,260.556,225.467,260.556,225.599,260.824z"/>
					</g>
				</g>
				<g>
					<g>
						<g>
							<g>
								<path style="fill:#263238;" d="M297.398,293.278c0.069,0.361-5.595,1.749-12.65,3.101          c-7.057,1.352-12.831,2.156-12.901,1.796c-0.069-0.36,5.594-1.748,12.651-3.101          C291.553,293.722,297.328,292.918,297.398,293.278z"/>
							</g>
						</g>
					</g>
					<g>
						<g>
							<g>
								<path style="fill:#263238;" d="M272.998,269.325c0.299,0.213-2.503,4.658-6.256,9.926c-3.755,5.271-7.04,9.369-7.339,9.156          c-0.299-0.213,2.502-4.656,6.257-9.927C269.413,273.212,272.699,269.112,272.998,269.325z"/>
							</g>
						</g>
					</g>
					<g>
						<g>
							<g>
								<path style="fill:#263238;" d="M240.506,253.84c0.367,0,0.664,6.16,0.664,13.756c0,7.599-0.298,13.757-0.664,13.757          c-0.367,0-0.665-6.158-0.665-13.757C239.841,260,240.139,253.84,240.506,253.84z"/>
							</g>
						</g>
					</g>
					<g>
						<g>
							<g>
								<path style="fill:#263238;" d="M223.238,286.785c-0.274,0.244-2.858-2.21-5.77-5.48c-2.913-3.272-5.052-6.121-4.778-6.365          c0.274-0.244,2.857,2.209,5.77,5.481C221.372,283.692,223.511,286.541,223.238,286.785z"/>
							</g>
						</g>
					</g>
					<g>
						<g>
							<g>
								<path style="fill:#263238;" d="M218.1,299.966c-0.072,0.36-6.355-0.605-14.03-2.154c-7.678-1.549-13.841-3.097-13.769-3.457          c0.072-0.359,6.353,0.604,14.031,2.154C212.008,298.059,218.172,299.606,218.1,299.966z"/>
							</g>
						</g>
					</g>
					<g>
						<g>
							<g>
								<path style="fill:#263238;" d="M217.148,313.975c0.129,0.344-3.205,1.911-7.445,3.5c-4.242,1.589-7.784,2.599-7.912,2.255          c-0.129-0.344,3.204-1.91,7.446-3.5C213.476,314.641,217.019,313.631,217.148,313.975z"/>
							</g>
						</g>
					</g>
					<g>
						<g>
							<g>
								<path style="fill:#263238;" d="M285.946,321.162c-0.124,0.345-3.38-0.509-7.272-1.907c-3.893-1.399-6.948-2.812-6.824-3.158          c0.124-0.345,3.38,0.509,7.273,1.907C283.015,319.403,286.07,320.817,285.946,321.162z"/>
							</g>
						</g>
					</g>
					<g>
						<g>
							<path style="fill:#263238;" d="M210.652,341.378c-0.098-0.105,2.678-2.858,6.201-6.148c3.523-3.291,6.458-5.873,6.557-5.768         c0.098,0.105-2.678,2.857-6.201,6.148C213.686,338.9,210.75,341.483,210.652,341.378z"/>
						</g>
					</g>
					<g>
						<g>
							<path style="fill:#263238;" d="M270.176,338.388c-0.115,0.087-1.915-2.099-4.022-4.882c-2.107-2.784-3.721-5.11-3.607-5.197         c0.115-0.087,1.915,2.099,4.022,4.883C268.676,335.975,270.291,338.302,270.176,338.388z"/>
						</g>
					</g>
				</g>
				<g>
					<g>
						<path style="fill:#FFFFFF;" d="M248.435,331.057c0,0-0.05-0.248-0.114-0.725c-0.067-0.527-0.156-1.22-0.266-2.085        c-0.225-1.87-0.538-4.478-0.922-7.676c-0.173-1.63-0.439-3.376-0.581-5.322c0.001-0.49,0.134-1.044,0.524-1.432        c0.358-0.41,1.075-0.539,1.545-0.174c0.463,0.34,0.703,0.876,0.79,1.421c0.061,0.553-0.01,1.113-0.208,1.639        c-0.396,1.05-1.247,1.933-2.313,2.411c-1.062,0.499-2.389,0.469-3.464-0.11c-1.083-0.559-1.93-1.568-2.34-2.75        c-0.2-0.594-0.298-1.227-0.221-1.875c0.048-0.32,0.145-0.645,0.347-0.928c0.196-0.285,0.54-0.495,0.904-0.502        c0.37-0.019,0.71,0.174,0.942,0.406c0.242,0.235,0.418,0.515,0.549,0.81c0.268,0.6,0.321,1.234,0.344,1.852        c0.019,1.235-0.375,2.519-1.282,3.369c-0.87,0.846-2.208,1.247-3.342,0.811c-1.123-0.423-1.905-1.342-2.454-2.281        c-0.275-0.478-0.489-0.982-0.641-1.496c-0.138-0.504-0.289-1.048-0.169-1.597c0.057-0.265,0.155-0.538,0.379-0.743        c0.225-0.217,0.595-0.24,0.852-0.091c0.512,0.336,0.595,0.9,0.732,1.34c0.539,1.852,0.836,3.632,0.978,5.263        c0.293,3.27-0.05,5.929-0.395,7.719c-0.36,1.795-0.713,2.746-0.713,2.746s0.046-0.249,0.163-0.715        c0.115-0.466,0.273-1.156,0.43-2.053c0.307-1.789,0.613-4.435,0.294-7.677c-0.156-1.617-0.463-3.379-1.007-5.211        c-0.128-0.45-0.256-0.961-0.613-1.178c-0.174-0.093-0.399-0.082-0.542,0.059c-0.152,0.137-0.244,0.365-0.29,0.595        c-0.105,0.466,0.031,0.963,0.17,1.462c0.148,0.493,0.356,0.976,0.621,1.432c0.529,0.902,1.285,1.766,2.306,2.144        c1.016,0.389,2.224,0.03,3.03-0.752c0.828-0.776,1.201-1.971,1.182-3.143c-0.02-0.585-0.078-1.201-0.317-1.728        c-0.227-0.516-0.663-1.047-1.196-1.032c-0.556,0.007-0.885,0.6-0.953,1.163c-0.068,0.574,0.019,1.18,0.207,1.73        c0.381,1.106,1.18,2.059,2.187,2.579c1.003,0.538,2.209,0.568,3.201,0.108c0.995-0.442,1.796-1.27,2.164-2.24        c0.186-0.482,0.25-1.006,0.199-1.497c-0.071-0.484-0.298-0.966-0.669-1.236c-0.37-0.28-0.89-0.195-1.197,0.138        c-0.327,0.322-0.449,0.789-0.454,1.248c0.128,1.879,0.383,3.677,0.542,5.293c0.343,3.202,0.623,5.814,0.823,7.687        c0.086,0.868,0.156,1.563,0.208,2.092C248.428,330.804,248.435,331.057,248.435,331.057z"/>
					</g>
				</g>
			</g>
		</g>
		<g>
			<g>
				<g>
					<path style="fill:#263238;" d="M153.59,477.277c-0.601,0,15.376-45.01,15.376-45.01H314.62l21.542,45.01H153.59z"/>
				</g>
				<g>
					<g>
						<polygon style="fill:#1447e6;" points="165.933,352.3 141.495,384.081 274.996,384.081 300.924,353.606       "/>
					</g>
					<g>
						<g>
							<polygon style="fill:#1447e6;" points="328.815,475.939 163.244,475.939 165.409,352.3 328.815,353.875        "/>
						</g>
					</g>
					<g style="opacity:0.3;">
						<polygon points="300.426,475.939 300.924,353.606 328.815,353.875 328.815,475.939       " fill="#000000"/>
					</g>
					<g>
						<polygon style="fill:#1447e6;" points="300.924,353.606 320.986,384.081 360.307,384.081 335.708,353.204       "/>
					</g>
					<g>
						<g>
							<path style="fill:#263238;" d="M360.307,384.081c0,0-0.234,0.019-0.691,0.027c-0.475,0.006-1.15,0.015-2.03,0.027         c-1.803,0.012-4.432,0.029-7.812,0.05c-6.806,0.02-16.631,0.049-28.787,0.084l-0.101,0l-0.056-0.085         c-5.737-8.689-12.57-19.037-20.104-30.447l0.381,0.025c-8.059,9.364-16.931,19.672-26.241,30.488l-0.078,0.09h-0.119         c-2.96,0-6.123,0.001-9.313,0.001c-34.614-0.03-65.946-0.057-88.644-0.076c-11.329-0.035-20.502-0.063-26.863-0.083         c-3.157-0.021-5.615-0.038-7.303-0.049c-0.822-0.011-1.453-0.02-1.899-0.026c-0.428-0.009-0.647-0.027-0.647-0.027         s0.219-0.018,0.647-0.027c0.446-0.006,1.077-0.015,1.899-0.026c1.688-0.011,4.146-0.028,7.303-0.049         c6.36-0.02,15.534-0.048,26.863-0.083c22.699-0.02,54.03-0.046,88.644-0.076c3.19,0,6.352,0,9.313,0.001l-0.197,0.09         c9.32-10.806,18.203-21.105,26.272-30.461l0.207-0.24l0.174,0.265c7.502,11.431,14.307,21.798,20.02,30.502l-0.158-0.085         c12.156,0.036,21.982,0.064,28.787,0.084c3.38,0.022,6.009,0.039,7.812,0.05c0.88,0.012,1.554,0.02,2.03,0.027         C360.073,384.062,360.307,384.081,360.307,384.081z"/>
						</g>
					</g>
				</g>
				<g style="opacity:0.2;">
					<g>
						<path style="fill:#FFFFFF;" d="M262.785,458.368c-1.044-1.919-1.236-3.914-0.581-5.986c0.655-2.072,1.938-3.57,3.852-4.496        c1.911-0.924,4.012-1.025,6.303-0.3c2.289,0.725,3.95,2.014,4.983,3.87c1.032,1.855,1.221,3.82,0.565,5.893        c-0.655,2.072-1.962,3.593-3.917,4.563c-1.958,0.972-4.053,1.103-6.288,0.396C265.464,461.6,263.827,460.288,262.785,458.368z         M278.41,401.997l15.211,4.811l-14.356,36.573l-10.141-3.207L278.41,401.997z"/>
					</g>
				</g>
				<g style="opacity:0.2;">
					<g>
						<path style="fill:#FFFFFF;" d="M186.332,391.117l7.46-3.276l5.196,15.239l-4.984,2.188L186.332,391.117z M197.191,413.063        c-0.999-0.36-1.711-1.026-2.136-1.995c-0.434-0.989-0.44-1.958-0.017-2.906c0.424-0.946,1.187-1.662,2.287-2.146        c1.1-0.483,2.137-0.558,3.11-0.225c0.974,0.334,1.678,0.996,2.113,1.985c0.425,0.969,0.434,1.944,0.023,2.923        c-0.409,0.982-1.153,1.708-2.231,2.182C199.239,413.365,198.19,413.426,197.191,413.063z"/>
					</g>
				</g>
				<g style="opacity:0.3;">
					<polygon points="164.772,388.681 275.043,388.681 300.924,353.606 274.996,384.081 164.852,384.081      " fill="#000000"/>
				</g>
			</g>
			<g>
				<g>
					<g>
						<g>
							<path style="fill:#FFBF9D;" d="M157.435,420.445c0,0-2.283-6.514,5.371-8.686c4.993-1.417,20.415-4.407,18.032,2.865         c-0.858,2.619-3.378,4.243-6.116,4.565c-3.604,0.423-6.644,3.283-6.644,3.283s-2.423,1.882-2.097,4.13         c0.326,2.248,0.052,7.389,6.769,9.73c6.716,2.341,9.916,4.924,12.051,9.218c1.882,3.787-0.484,5.423-0.484,5.423         s4.128,3.144,3.437,6.136c-0.263,1.137,0.198,2.375,0.725,3.33c0.007,0.013,0.014,0.025,0.021,0.038         c1.026,1.897-0.279,4.245-2.399,4.642l-0.339,0.064c0,0-20.408-0.74-24.989-5.941c-4.581-5.201-5.27-9.947-5.27-9.947         s-3.754-6.317,0.488-10.004c-1.555-7.235-0.001-10.903,2.883-13.045L157.435,420.445z"/>
						</g>
						<g>
							<g>
								<path style="fill:#FF9A6C;" d="M157.435,420.445c0.034-0.01,0.192,0.488,0.467,1.458c0.289,1.068,0.676,2.492,1.164,4.292          l0.035,0.127l-0.109,0.081c-1.328,0.98-2.605,2.661-3.051,4.95c-0.477,2.275-0.238,4.982,0.391,7.861l0.044,0.199          l-0.156,0.139c-1.14,1.015-1.897,2.566-1.855,4.305c0.01,1.72,0.586,3.569,1.498,5.22l0.037,0.066l0.018,0.088          c0.505,2.468,1.731,5.015,3.354,7.341c0.823,1.143,1.742,2.375,2.826,3.211c1.21,0.779,2.571,1.434,4.05,1.895          c5.9,1.892,12.665,2.581,19.634,2.967l-0.118,0.009c1.278-0.136,2.287-1.018,2.579-2.19c0.141-0.575,0.065-1.177-0.206-1.7          c-0.346-0.633-0.68-1.366-0.824-2.157c-0.215-0.781,0.071-1.766,0.063-2.247c-0.009-0.607-0.224-1.236-0.542-1.827          c-0.645-1.182-1.67-2.251-2.747-3.126l-0.555-0.45l0.575-0.435c0.14-0.106,0.358-0.34,0.5-0.563          c0.813-1.239,0.461-2.927-0.279-4.327c-0.742-1.471-1.685-2.804-2.833-3.924c-2.313-2.243-5.317-3.588-8.269-4.674          c-1.502-0.532-3.074-1.216-4.322-2.3c-1.28-1.052-2.182-2.523-2.654-4.044c-0.487-1.568-0.558-3.011-0.697-4.586          c0.098-1.765,1.18-3.036,2.325-4.022l-0.035,0.03c1.425-1.248,2.977-2.203,4.675-2.837c0.828-0.318,1.775-0.496,2.584-0.598          c0.792-0.117,1.554-0.363,2.252-0.704c1.399-0.676,2.524-1.814,3.056-3.171c0.257-0.675,0.429-1.397,0.308-2.029          c-0.11-0.633-0.513-1.15-1.076-1.5c-1.154-0.69-2.606-0.856-3.941-0.938c-1.354-0.074-2.678,0.004-3.944,0.112          c-2.535,0.233-4.855,0.657-6.928,1.118c-2.08,0.448-3.893,1.012-5.171,2.024c-1.271,1.003-1.924,2.294-2.159,3.386          C156.991,419.214,157.532,420.443,157.435,420.445c-0.024,0.009-0.158-0.276-0.285-0.867          c-0.119-0.587-0.247-1.493-0.057-2.661c0.195-1.153,0.848-2.571,2.18-3.68c1.326-1.116,3.251-1.754,5.32-2.241          c2.087-0.507,4.418-0.975,6.994-1.251c1.288-0.13,2.636-0.229,4.048-0.171c1.398,0.078,2.911,0.192,4.335,1.007          c0.698,0.409,1.319,1.157,1.473,2.038c0.166,0.879-0.045,1.72-0.331,2.501c-0.6,1.578-1.892,2.895-3.454,3.665          c-0.782,0.39-1.629,0.67-2.51,0.807c-0.867,0.12-1.61,0.268-2.403,0.571c-1.544,0.582-3.049,1.527-4.329,2.664l-0.005,0.005          l-0.03,0.025c-0.969,0.823-1.894,2.029-1.92,3.267c0.136,1.341,0.231,2.921,0.672,4.254          c0.435,1.364,1.215,2.626,2.353,3.556c1.128,0.965,2.5,1.568,4.003,2.096c3.013,1.102,6.152,2.476,8.664,4.897          c1.242,1.207,2.264,2.653,3.049,4.207c0.801,1.512,1.359,3.651,0.223,5.421c-0.223,0.33-0.447,0.602-0.795,0.866l0.02-0.886          c1.214,0.991,2.275,2.087,3.046,3.477c0.371,0.693,0.657,1.479,0.672,2.329c-0.033,0.96-0.251,1.413-0.084,2.067          c0.117,0.633,0.377,1.231,0.715,1.852c0.392,0.75,0.498,1.647,0.295,2.455c-0.36,1.631-1.919,2.848-3.433,2.99l-0.102,0.01          l-0.016-0.001c-3.548-0.169-6.984-0.502-10.321-0.974c-3.331-0.481-6.563-1.1-9.591-2.133          c-1.521-0.487-2.965-1.179-4.291-2.054c-1.312-1.043-2.152-2.25-3.022-3.459c-1.666-2.451-2.902-5.025-3.43-7.744          l0.054,0.154c-0.979-1.823-1.552-3.737-1.549-5.653c-0.031-1.919,0.871-3.729,2.168-4.829l-0.113,0.337          c-0.596-2.945-0.802-5.74-0.251-8.128c0.518-2.405,1.942-4.181,3.358-5.15l-0.074,0.207          c-0.409-1.817-0.732-3.254-0.975-4.332C157.494,420.973,157.401,420.455,157.435,420.445z"/>
							</g>
						</g>
					</g>
					<g>
						<g>
							<path style="fill:#FF9A6C;" d="M184.316,450.973c-0.027,0.142-1.649-0.014-4.221-0.55c-2.57-0.507-6.083-1.519-9.877-2.636         c-1.925-0.523-3.8-1.125-5.358-2.039c-1.535-0.911-2.753-1.927-3.717-2.847c-1.964-1.833-2.565-3.503-2.395-3.546         c0.125-0.049,0.894,1.346,2.912,2.969c0.989,0.811,2.229,1.737,3.695,2.544c1.458,0.794,3.239,1.344,5.157,1.863         c3.578,1.077,6.826,2.054,9.769,2.94C182.784,450.395,184.346,450.818,184.316,450.973z"/>
						</g>
					</g>
					<g>
						<g>
							<path style="fill:#FF9A6C;" d="M187.226,459.387c0.033,0.114-1.959,0.751-5.294,0.727c-3.331,0.01-7.871-0.88-12.655-2.365         c-1.192-0.37-2.353-0.731-3.486-1.083c-1.124-0.352-2.262-0.734-3.244-1.35c-1.97-1.27-3.066-2.974-4.046-4.291         c-1.919-2.723-2.458-4.788-2.296-4.822c0.132-0.044,0.891,1.823,2.919,4.363c1.025,1.23,2.208,2.847,3.944,3.886         c1.743,0.985,4.178,1.459,6.525,2.249c4.756,1.475,9.135,2.452,12.368,2.64C185.191,459.561,187.197,459.207,187.226,459.387         z"/>
						</g>
					</g>
					<g>
						<g>
							<path style="fill:#FF9A6C;" d="M174.663,419.134c0.103,0.284-2.746,1.582-6.363,2.898c-1.798,0.649-3.478,1.242-4.792,1.392         c-1.31,0.165-2.121-0.06-2.105-0.199c0.009-0.161,0.781-0.219,1.951-0.56c1.173-0.322,2.752-1.004,4.572-1.662         C171.542,419.686,174.559,418.85,174.663,419.134z"/>
						</g>
					</g>
				</g>
			</g>
		</g>
		<g>
			<g>
				<g>
					<g>
						<g>
							<g>
								<g>
									<path style="fill:#FFBF9D;" d="M331.607,194.814c3.037-0.714,11.333,2.289,18.892,9.361           c0.125,0.107,0.252,0.193,0.376,0.303c5.317,4.707,6.269-11.839,5.857-17.85c-0.267-3.9,3.403-7.036,7.397-6.376           l20.816,6.438l4.499,4.125c3.113,0.514,2.983-0.891,2.782,2.155l-3.34,34.929l3.829,14.188l-28.667,4.371l-1.837-15.177           l-2.477-2.285c-5.202-2.914-9.43-7.263-12.262-12.51c-0.071-0.132-0.143-0.264-0.215-0.397           c-1.521-2.796-3.536-5.35-5.952-7.478c-2.532-2.231-5.927-5.009-8.604-6.424c-0.237-0.095-0.511-0.243-0.73-0.313           c-0.53-0.167-0.948-0.444-1.315-0.758C328.24,199.34,328.643,195.51,331.607,194.814z"/>
								</g>
							</g>
						</g>
					</g>
					<g>
						<g>
							<g>
								<g>
									<path style="fill:#263238;" d="M320.065,176.342l16.826,22.888l6.082-2.812l47.144,27.044l7.906-24.666           c0,0-26.322-6.572-32.303-14.597c-5.981-8.025-1.838-8.522-1.838-8.522l-12.937-13.61L320.065,176.342z"/>
								</g>
							</g>
						</g>
					</g>
					<g>
						<g>
							<g>
								<g>
									<path style="fill:#FFBF9D;" d="M369.878,172.967c2.292,0.506,3.817,2.796,3.457,5.193           c-0.69,4.589-1.842,11.802-2.891,16.24c-0.338,1.431-0.717,2.891-1.551,4.074c-0.834,1.182-2.231,2.041-3.635,1.797           c-1.481-0.259-2.593-1.681-2.995-3.191c-0.402-1.51-0.232-3.104-0.044-4.649c0.52-4.267,1.593-10.705,2.56-15.962           C365.231,174.013,367.516,172.446,369.878,172.967L369.878,172.967z"/>
								</g>
							</g>
						</g>
					</g>
					<g>
						<g>
							<g>
								<g>
									<path style="fill:#FFBF9D;" d="M377.403,179.733c2.291,0.506,3.817,2.796,3.457,5.193           c-0.69,4.589-1.842,11.802-2.892,16.24c-0.338,1.431-0.717,2.892-1.551,4.074c-0.835,1.182-2.231,2.041-3.635,1.796           c-1.481-0.258-2.593-1.681-2.994-3.191c-0.402-1.51-0.233-3.104-0.044-4.649c0.52-4.266,1.594-10.705,2.561-15.962           C372.756,180.779,375.041,179.212,377.403,179.733L377.403,179.733z"/>
								</g>
							</g>
						</g>
					</g>
					<g>
						<g>
							<g>
								<g>
									<path style="fill:#FFBF9D;" d="M384.156,183.645c2.067,0.422,3.428,2.397,3.086,4.479           c-0.656,3.985-1.749,10.249-2.73,14.106c-0.316,1.243-0.668,2.513-1.431,3.544c-0.762,1.031-2.03,1.787-3.297,1.584           c-1.336-0.213-2.33-1.439-2.682-2.746c-0.352-1.306-0.188-2.691-0.006-4.032c0.5-3.704,1.517-9.296,2.428-13.863           C379.95,184.585,382.026,183.21,384.156,183.645L384.156,183.645z"/>
								</g>
							</g>
						</g>
					</g>
					<g>
						<g>
							<g>
								<g>
									<path style="fill:#FFBF9D;" d="M392.093,183.868c2.077,0.424,3.445,2.409,3.101,4.5           c-0.659,4.004-1.758,10.298-2.742,14.173c-0.317,1.249-0.672,2.525-1.438,3.561c-0.766,1.036-2.04,1.795-3.312,1.592           c-1.343-0.215-2.342-1.446-2.695-2.759c-0.354-1.313-0.188-2.703-0.006-4.051c0.503-3.721,1.524-9.34,2.44-13.928           C387.868,184.813,389.953,183.431,392.093,183.868L392.093,183.868z"/>
								</g>
							</g>
						</g>
					</g>
					<g>
						<g>
							<g>
								<g>
									<path style="fill:#FF9A6C;" d="M369.326,198.567c0.44,0.092,1.586-3.624,2.56-8.298c0.975-4.676,1.409-8.538,0.969-8.63           c-0.44-0.092-1.586,3.623-2.561,8.299C369.321,194.612,368.887,198.476,369.326,198.567z"/>
								</g>
							</g>
						</g>
					</g>
					<g>
						<g>
							<g>
								<g>
									<path style="fill:#FF9A6C;" d="M377.143,203.882c0.442,0.079,1.618-4.179,2.625-9.509c1.008-5.332,1.469-9.728,1.029-9.821           c-0.439-0.093-1.615,4.164-2.625,9.51C377.162,199.406,376.701,203.803,377.143,203.882z"/>
								</g>
							</g>
						</g>
					</g>
					<g>
						<g>
							<g>
								<g>
									<path style="fill:#FF9A6C;" d="M384.14,203.439c0.421,0.129,1.914-3.542,2.897-8.305c0.994-4.763,1.084-8.725,0.646-8.773           c-0.455-0.053-1.261,3.76-2.238,8.443C384.479,199.487,383.701,203.307,384.14,203.439z"/>
								</g>
							</g>
						</g>
					</g>
					<g>
						<g>
							<g>
								<g>
									<g>
										<path style="fill:#1447e6;" d="M333.367,144.033c0,0,12.113-6.066,29.948-24.151c17.834-18.085,26.63-38.84,28.873-38.786            c2.243,0.054,11.904-4.746,31.582,35.228c19.678,39.975,12.599,49.567,8.895,49.589            c-3.704,0.022-28.727-3.343-44.38-1.141c-15.653,2.202-38.486,11.123-38.486,11.123L333.367,144.033z"/>
									</g>
								</g>
							</g>
						</g>
						<g>
							<g>
								<g>
									<g>
										<polygon style="fill:#1447e6;" points="306.528,185.881 314.607,183.099 307.828,173.081 301.514,178.051           "/>
									</g>
								</g>
							</g>
						</g>
						<g>
							<g>
								<g>
									<g>
										<path style="fill:#1447e6;" d="M306.513,172.183l5.281,7.803l2.883,4.258c3.952,5.841,11.786,7.566,17.826,3.925            l32.072-15.336l-21.481-39.723l-31.869,18.751C305.206,155.983,302.176,164.484,306.513,172.183z"/>
									</g>
								</g>
							</g>
						</g>
						<g style="opacity:0.3;">
							<g>
								<g>
									<g>
										<path d="M306.513,172.183l5.281,7.803l2.883,4.258c3.952,5.841,11.786,7.566,17.826,3.925l32.072-15.336l-21.481-39.723            l-31.869,18.751C305.206,155.983,302.176,164.484,306.513,172.183z" fill="#000000"/>
									</g>
								</g>
							</g>
						</g>
						<g>
							<g>
								<g>
									<g>
										<path style="fill:#263238;" d="M422.285,117.102c10.483,21.659,15.123,41.084,10.364,43.388            c-4.759,2.303-17.115-13.388-27.598-35.047c-10.482-21.659-15.122-41.084-10.364-43.387            C399.447,79.752,411.802,95.442,422.285,117.102z"/>
									</g>
								</g>
							</g>
						</g>
						<g>
							<g>
								<g>
									<g>
										<path style="fill:#1447e6;" d="M401.971,112.762c0,0,11.118-7.309,17.708,7.799c6.59,15.108-5.237,17.935-5.237,17.935            C409.374,131.077,405.191,122.533,401.971,112.762z"/>
									</g>
								</g>
							</g>
						</g>
						<g>
							<g>
								<g>
									<g>
										<path style="fill:#263238;" d="M389.466,94.881c-0.066,0.013,0.122,1.046,0.521,2.906            c0.407,1.857,0.984,4.552,1.798,7.859c0.521,1.625,1.091,3.4,1.702,5.303c0.309,0.954,0.629,1.939,0.957,2.953            c0.165,0.508,0.333,1.022,0.503,1.544c0.183,0.517,0.417,1.023,0.627,1.545c0.87,2.08,1.782,4.261,2.728,6.521            c0.237,0.565,0.477,1.135,0.719,1.71c0.235,0.578,0.561,1.119,0.84,1.686c0.583,1.124,1.174,2.265,1.772,3.42            c0.6,1.154,1.193,2.294,1.777,3.418c0.303,0.555,0.559,1.133,0.895,1.659c0.331,0.528,0.66,1.053,0.985,1.573            c1.304,2.075,2.563,4.078,3.763,5.987c0.306,0.473,0.585,0.955,0.903,1.402c0.329,0.44,0.654,0.874,0.975,1.302            c0.642,0.854,1.264,1.684,1.867,2.487c1.206,1.596,2.331,3.086,3.361,4.449c2.231,2.562,4.098,4.579,5.382,5.98            c1.291,1.395,2.028,2.145,2.079,2.1c0.051-0.044-0.591-0.878-1.794-2.348c-1.247-1.497-2.997-3.6-5.147-6.182            c-0.993-1.375-2.078-2.878-3.24-4.488c-0.584-0.805-1.189-1.637-1.811-2.493c-0.312-0.428-0.628-0.862-0.948-1.302            c-0.309-0.448-0.582-0.931-0.88-1.404c-1.176-1.906-2.411-3.905-3.691-5.976c-0.321-0.518-0.644-1.04-0.971-1.566            c-0.332-0.523-0.584-1.097-0.884-1.65c-0.579-1.117-1.166-2.25-1.76-3.397c-0.595-1.146-1.184-2.278-1.764-3.393            c-0.279-0.563-0.604-1.099-0.84-1.672c-0.242-0.569-0.483-1.134-0.721-1.695c-0.957-2.237-1.882-4.397-2.762-6.456            c-0.215-0.516-0.453-1.016-0.641-1.528c-0.175-0.516-0.348-1.025-0.519-1.527c-0.342-1.003-0.675-1.978-0.997-2.92            c-0.648-1.88-1.252-3.633-1.806-5.238c-0.872-3.237-1.582-5.873-2.088-7.751            C389.844,95.874,389.531,94.867,389.466,94.881z"/>
									</g>
								</g>
							</g>
						</g>
						<g>
							<g>
								<g>
									<path style="fill:#263238;" d="M339.367,150.788c0.113,0.205-5.291,3.387-12.068,7.105           c-6.779,3.72-12.365,6.569-12.477,6.364c-0.112-0.205,5.29-3.386,12.07-7.106           C333.668,153.432,339.254,150.583,339.367,150.788z"/>
								</g>
							</g>
						</g>
						<g>
							<g>
								<g>
									<path style="fill:#263238;" d="M341.714,155.166c0.112,0.205-5.291,3.386-12.068,7.105           c-6.779,3.72-12.364,6.569-12.477,6.364c-0.112-0.205,5.29-3.386,12.07-7.106           C336.015,157.81,341.602,154.961,341.714,155.166z"/>
								</g>
							</g>
						</g>
						<g>
							<g>
								<g>
									<path style="fill:#263238;" d="M344.061,159.543c0.112,0.205-5.291,3.387-12.068,7.105           c-6.779,3.72-12.364,6.569-12.477,6.364c-0.112-0.205,5.29-3.386,12.07-7.106           C338.362,162.188,343.949,159.338,344.061,159.543z"/>
								</g>
							</g>
						</g>
						<g>
							<g>
								<g>
									<path style="fill:#263238;" d="M346.408,163.921c0.113,0.205-5.292,3.387-12.069,7.105           c-6.779,3.72-12.364,6.569-12.477,6.364c-0.112-0.205,5.29-3.386,12.07-7.106           C340.709,166.565,346.296,163.716,346.408,163.921z"/>
								</g>
							</g>
						</g>
					</g>
				</g>
				<g>
					<path style="fill:#FFBF9D;" d="M410.994,306.425c-2.14-21.143-23.061-77.716-23.061-77.716h-27.234l12.148,63.173       c0,0-3.257-2.85-7.749-6.777l-23.734,41.832c6.547,4.01,14.393,7.783,22.346,11.059       C397.842,352.053,413.624,332.409,410.994,306.425z"/>
				</g>
			</g>
			<g>
				<g>
					<path style="fill:#FF9A6C;" d="M382.482,313.124c-0.07,0.028-0.637-1.216-1.552-3.226c-0.915-2.009-2.191-4.778-3.673-7.801       c-1.484-3.023-2.892-5.727-3.922-7.68c-1.029-1.953-1.666-3.163-1.601-3.201c0.031-0.018,0.231,0.261,0.566,0.781       c0.336,0.52,0.801,1.285,1.357,2.241c1.114,1.911,2.578,4.597,4.067,7.629c1.486,3.032,2.714,5.833,3.544,7.884       c0.415,1.025,0.736,1.861,0.942,2.445C382.417,312.781,382.515,313.11,382.482,313.124z"/>
				</g>
			</g>
		</g>
	</g>
</g>
<g id="Text">
	<g>
		<g>
			<path style="fill:#b5dbff;" d="M198.952,420.836c0.938,0.422,1.661,1.025,2.171,1.809c0.509,0.784,0.764,1.706,0.764,2.764     c0,1.059-0.255,1.977-0.764,2.754c-0.51,0.777-1.233,1.377-2.171,1.799c-0.938,0.422-2.044,0.634-3.316,0.634h-2.452v3.678h-3.98     v-14.069h6.432C196.909,420.203,198.014,420.414,198.952,420.836z M197.244,426.926c0.415-0.354,0.623-0.86,0.623-1.518     c0-0.656-0.208-1.165-0.623-1.527c-0.415-0.361-1.032-0.543-1.849-0.543h-2.211v4.121h2.211     C196.212,427.459,196.828,427.282,197.244,426.926z"/>
			<path style="fill:#b5dbff;" d="M209.967,430.534h-2.171v3.738h-3.98v-14.069h6.432c1.273,0,2.378,0.211,3.316,0.633     c0.938,0.422,1.661,1.025,2.171,1.809c0.509,0.784,0.764,1.706,0.764,2.764c0,1.019-0.238,1.906-0.713,2.663     c-0.476,0.758-1.156,1.351-2.04,1.779l3.035,4.422h-4.261L209.967,430.534z M211.856,423.881     c-0.415-0.361-1.032-0.543-1.849-0.543h-2.211v4.121h2.211c0.817,0,1.434-0.178,1.849-0.533c0.415-0.354,0.623-0.86,0.623-1.518     C212.479,424.752,212.271,424.243,211.856,423.881z"/>
			<path style="fill:#b5dbff;" d="M221.775,433.61c-1.186-0.63-2.117-1.501-2.794-2.613s-1.015-2.364-1.015-3.759     c0-1.394,0.338-2.646,1.015-3.758s1.608-1.983,2.794-2.613c1.186-0.63,2.523-0.944,4.01-0.944c1.487,0,2.824,0.314,4.01,0.944     c1.186,0.63,2.117,1.501,2.794,2.613c0.677,1.112,1.015,2.364,1.015,3.758c0,1.395-0.338,2.646-1.015,3.759     c-0.677,1.112-1.608,1.983-2.794,2.613c-1.186,0.63-2.522,0.944-4.01,0.944C224.298,434.554,222.961,434.24,221.775,433.61z      M227.714,430.755c0.576-0.335,1.032-0.807,1.367-1.417c0.335-0.609,0.502-1.31,0.502-2.101c0-0.79-0.167-1.49-0.502-2.1     c-0.335-0.61-0.79-1.082-1.367-1.417c-0.576-0.335-1.219-0.503-1.93-0.503c-0.71,0-1.354,0.168-1.929,0.503     c-0.577,0.335-1.032,0.807-1.367,1.417c-0.335,0.609-0.502,1.31-0.502,2.1c0,0.791,0.167,1.491,0.502,2.101     c0.335,0.61,0.791,1.082,1.367,1.417c0.576,0.335,1.219,0.503,1.929,0.503C226.495,431.258,227.138,431.09,227.714,430.755z"/>
			<path style="fill:#b5dbff;" d="M235.693,420.203h6.653c1.541,0,2.907,0.288,4.1,0.864c1.192,0.576,2.117,1.394,2.774,2.452     c0.656,1.059,0.985,2.298,0.985,3.718c0,1.421-0.329,2.66-0.985,3.719c-0.657,1.059-1.581,1.876-2.774,2.452     c-1.193,0.576-2.56,0.864-4.1,0.864h-6.653V420.203z M242.186,431.097c1.206,0,2.174-0.342,2.905-1.025     c0.73-0.683,1.095-1.628,1.095-2.834c0-1.206-0.365-2.15-1.095-2.834c-0.731-0.683-1.699-1.024-2.905-1.024h-2.512v7.718H242.186     z"/>
			<path style="fill:#b5dbff;" d="M253.914,432.846c-1.159-1.139-1.738-2.754-1.738-4.845v-7.798h3.98v7.678     c0,2.251,0.892,3.377,2.674,3.377c1.768,0,2.652-1.126,2.652-3.377v-7.678h3.92v7.798c0,2.091-0.58,3.706-1.738,4.845     c-1.159,1.139-2.784,1.708-4.875,1.708C256.698,434.554,255.073,433.985,253.914,432.846z"/>
			<path style="fill:#b5dbff;" d="M271.139,433.62c-1.173-0.623-2.094-1.49-2.764-2.603c-0.67-1.112-1.005-2.372-1.005-3.779     c0-1.406,0.335-2.666,1.005-3.778c0.67-1.112,1.591-1.979,2.764-2.602c1.172-0.623,2.495-0.935,3.97-0.935     c1.286,0,2.445,0.227,3.477,0.683c1.032,0.456,1.89,1.112,2.573,1.97l-2.532,2.292c-0.912-1.099-2.018-1.648-3.316-1.648     c-0.764,0-1.444,0.168-2.04,0.503c-0.597,0.335-1.06,0.807-1.388,1.417c-0.328,0.609-0.492,1.31-0.492,2.1     c0,0.791,0.164,1.491,0.492,2.101c0.328,0.61,0.791,1.082,1.388,1.417c0.596,0.335,1.276,0.503,2.04,0.503     c1.299,0,2.404-0.55,3.316-1.648l2.532,2.291c-0.684,0.858-1.541,1.515-2.573,1.97c-1.031,0.456-2.19,0.684-3.477,0.684     C273.634,434.554,272.311,434.242,271.139,433.62z"/>
			<path style="fill:#b5dbff;" d="M285.801,423.359h-4.321v-3.155h12.603v3.155h-4.301v10.914h-3.98V423.359z"/>
		</g>
		<g>
			<path style="fill:#b5dbff;" d="M226.761,400.703v14.069h-3.276l-6.211-7.497v7.497h-3.9v-14.069h3.276l6.211,7.497v-7.497     H226.761z"/>
			<path style="fill:#b5dbff;" d="M240.871,411.698v3.075h-11.296v-14.069h11.035v3.075h-7.095v2.371h6.251v2.975h-6.251v2.573     H240.871z"/>
			<path style="fill:#b5dbff;" d="M264.951,400.703l-4.563,14.069h-4.262l-2.693-8.563l-2.813,8.563h-4.261l-4.562-14.069h4.1     l2.834,8.984l2.975-8.984h3.658l2.834,9.065l2.955-9.065H264.951z"/>
		</g>
	</g>
</g>
</svg>